<?xml version="1.0" encoding="UTF-8"?>
<!DOCTYPE svg PUBLIC "-//W3C//DTD SVG 1.1//EN" "http://www.w3.org/Graphics/SVG/1.1/DTD/svg11.dtd">
<svg xmlns="http://www.w3.org/2000/svg" version="1.1" width="1600px" height="365px" style="shape-rendering:geometricPrecision; text-rendering:geometricPrecision; image-rendering:optimizeQuality; fill-rule:evenodd; clip-rule:evenodd" xmlns:xlink="http://www.w3.org/1999/xlink">
<g><path style="opacity:1" fill="#f7f6f6" d="M -0.5,-0.5 C 532.833,-0.5 1066.17,-0.5 1599.5,-0.5C 1599.5,121.167 1599.5,242.833 1599.5,364.5C 1066.17,364.5 532.833,364.5 -0.5,364.5C -0.5,242.833 -0.5,121.167 -0.5,-0.5 Z"/></g>
<g><path style="opacity:1" fill="#df4c4d" d="M 198.5,20.5 C 192.36,20.2354 186.36,20.9021 180.5,22.5C 185.118,18.7883 190.451,17.6217 196.5,19C 197.416,19.2784 198.082,19.7784 198.5,20.5 Z"/></g>
<g><path style="opacity:1" fill="#ed1f27" d="M 198.5,20.5 C 212.338,26.1507 216.838,36.1507 212,50.5C 205.528,61.6476 196.028,65.481 183.5,62C 176.316,58.6594 171.983,53.1594 170.5,45.5C 170.467,41.1311 170.8,36.7978 171.5,32.5C 173.128,27.8746 176.128,24.5413 180.5,22.5C 186.36,20.9021 192.36,20.2354 198.5,20.5 Z"/></g>
<g><path style="opacity:1" fill="#ed1e26" d="M 144.5,25.5 C 146.484,40.1294 147.15,55.1294 146.5,70.5C 145.209,70.2627 144.209,70.596 143.5,71.5C 102.278,91.0727 77.6113,123.406 69.5,168.5C 68.7784,168.918 68.2784,169.584 68,170.5C 67.1772,178.677 67.3439,186.677 68.5,194.5C 73.8007,240.97 97.134,275.136 138.5,297C 141.285,297.658 143.951,298.491 146.5,299.5C 146.5,300.167 146.833,300.5 147.5,300.5C 147.5,312.5 147.5,324.5 147.5,336.5C 146.167,336.5 144.833,336.5 143.5,336.5C 141.708,336.634 140.042,336.301 138.5,335.5C 89.2129,318.714 55.0463,286.048 36,237.5C 33.8489,230.244 32.0156,222.911 30.5,215.5C 28.5103,196.331 28.0103,176.997 29,157.5C 30.2513,152.907 31.0847,148.241 31.5,143.5C 33.767,130.532 37.9337,118.199 44,106.5C 64.0805,69.4319 93.9138,43.2652 133.5,28C 137.121,26.8618 140.788,26.0284 144.5,25.5 Z"/></g>
<g><path style="opacity:1" fill="#da464c" d="M 144.5,25.5 C 145.209,24.596 146.209,24.2627 147.5,24.5C 147.5,40.1667 147.5,55.8333 147.5,71.5C 146.167,71.5 144.833,71.5 143.5,71.5C 144.209,70.596 145.209,70.2627 146.5,70.5C 147.15,55.1294 146.484,40.1294 144.5,25.5 Z"/></g>
<g><path style="opacity:1" fill="#e97176" d="M 171.5,32.5 C 170.8,36.7978 170.467,41.1311 170.5,45.5C 169.84,44.036 169.507,42.3693 169.5,40.5C 169.382,37.5143 170.048,34.8476 171.5,32.5 Z"/></g>
<g><path style="opacity:1" fill="#ed1f26" d="M 230.5,24.5 C 257.373,31.9357 281.04,45.1023 301.5,64C 302.765,65.3374 303.265,66.8374 303,68.5C 293.852,77.8176 284.685,86.8176 275.5,95.5C 268.835,90.5019 262.168,85.5019 255.5,80.5C 246.617,75.536 237.284,71.536 227.5,68.5C 227.167,68.1667 226.833,67.8333 226.5,67.5C 234.17,53.8049 235.503,39.4716 230.5,24.5 Z"/></g>
<g><path style="opacity:1" fill="#d94345" d="M 523.5,63.5 C 525.467,63.2606 527.301,63.5939 529,64.5C 529.833,147.502 529.667,230.502 528.5,313.5C 526.958,314.747 525.458,314.747 524,313.5C 523.5,230.167 523.333,146.834 523.5,63.5 Z"/></g>
<g><path style="opacity:1" fill="#f91820" d="M 526.5,66.5 C 526.17,148.571 526.503,230.571 527.5,312.5C 526.5,312.5 525.5,312.5 524.5,312.5C 524.167,229.831 524.5,147.164 525.5,64.5C 526.298,64.9569 526.631,65.6236 526.5,66.5 Z"/></g>
<g><path style="opacity:1" fill="#ea1d26" d="M 526.5,66.5 C 527.833,107.161 528.5,148.161 528.5,189.5C 528.5,230.668 528.167,271.668 527.5,312.5C 526.503,230.571 526.17,148.571 526.5,66.5 Z"/></g>
<g><path style="opacity:1" fill="#e33437" d="M 167.5,94.5 C 165.583,96.3326 163.749,98.3326 162,100.5C 161.326,99.4216 160.326,98.7549 159,98.5C 156.343,99.0774 153.843,100.077 151.5,101.5C 151.36,102.764 151.36,103.931 151.5,105C 150.167,105.667 148.833,105.667 147.5,105C 148.956,104.577 149.456,103.744 149,102.5C 147.275,103.464 145.441,104.131 143.5,104.5C 148.327,100.917 153.661,98.0837 159.5,96C 162.117,95.1785 164.784,94.6785 167.5,94.5 Z"/></g>
<g><path style="opacity:1" fill="#f06a6e" d="M 597.5,104.5 C 602.68,103.185 608.014,103.185 613.5,104.5C 614.63,105.622 615.297,106.956 615.5,108.5C 612.341,105.117 608.341,103.784 603.5,104.5C 601.833,104.5 600.167,104.5 598.5,104.5C 598.167,104.5 597.833,104.5 597.5,104.5 Z"/></g>
<g><path style="opacity:1" fill="#dc464a" d="M 975.5,104.5 C 966.8,104.289 958.133,104.623 949.5,105.5C 949.918,104.778 950.584,104.278 951.5,104C 959.693,101.858 967.693,102.025 975.5,104.5 Z"/></g>
<g><path style="opacity:1" fill="#dd5352" d="M 1155.5,103.5 C 1150.17,103.833 1144.83,104.167 1139.5,104.5C 1144.76,102.476 1150.09,102.143 1155.5,103.5 Z"/></g>
<g><path style="opacity:1" fill="#eb696d" d="M 1227.5,106.5 C 1225.78,105.2 1223.61,104.533 1221,104.5C 1217.63,104.428 1214.8,105.428 1212.5,107.5C 1212.54,106.417 1212.87,105.417 1213.5,104.5C 1218.46,103.506 1223.46,103.173 1228.5,103.5C 1228.74,104.791 1228.4,105.791 1227.5,106.5 Z"/></g>
<g><path style="opacity:1" fill="#f07d80" d="M 1299.5,104.5 C 1311.99,103.505 1324.66,103.171 1337.5,103.5C 1337.5,107.833 1337.5,112.167 1337.5,116.5C 1330.17,116.5 1322.83,116.5 1315.5,116.5C 1315.17,116.5 1314.83,116.5 1314.5,116.5C 1321.65,115.508 1328.98,115.175 1336.5,115.5C 1336.5,111.833 1336.5,108.167 1336.5,104.5C 1325.17,104.5 1313.83,104.5 1302.5,104.5C 1301.83,104.5 1301.17,104.5 1300.5,104.5C 1300.17,104.5 1299.83,104.5 1299.5,104.5 Z"/></g>
<g><path style="opacity:1" fill="#e85157" d="M 1192.5,111.5 C 1190.82,110.817 1190.16,109.483 1190.5,107.5C 1188.06,107.881 1187.39,107.214 1188.5,105.5C 1186.17,105.167 1183.83,104.833 1181.5,104.5C 1178.73,104.529 1176.4,105.195 1174.5,106.5C 1173.6,105.791 1173.26,104.791 1173.5,103.5C 1178.84,103.334 1184.18,103.501 1189.5,104C 1191.2,106.235 1192.2,108.735 1192.5,111.5 Z"/></g>
<g><path style="opacity:1" fill="#da444b" d="M 975.5,104.5 C 976.822,104.33 977.989,104.663 979,105.5C 979.828,109.871 979.661,114.205 978.5,118.5C 977.893,118.376 977.56,118.043 977.5,117.5C 978.482,114.038 978.815,110.371 978.5,106.5C 976.821,106.715 975.821,106.048 975.5,104.5 Z"/></g>
<g><path style="opacity:1" fill="#ec2228" d="M 673.5,104.5 C 683.5,104.5 693.5,104.5 703.5,104.5C 719.65,106.316 728.316,115.316 729.5,131.5C 729.663,136.547 729.329,141.547 728.5,146.5C 724.44,158.558 716.106,165.558 703.5,167.5C 693.5,167.5 683.5,167.5 673.5,167.5C 673.5,146.5 673.5,125.5 673.5,104.5 Z"/></g>
<g><path style="opacity:1" fill="#de595d" d="M 565.5,103.5 C 570.5,103.5 575.5,103.5 580.5,103.5C 580.5,125.5 580.5,147.5 580.5,169.5C 575.5,169.5 570.5,169.5 565.5,169.5C 565.5,147.5 565.5,125.5 565.5,103.5 Z"/></g>
<g><path style="opacity:1" fill="#ec1d25" d="M 566.5,104.5 C 570.833,104.5 575.167,104.5 579.5,104.5C 579.5,125.833 579.5,147.167 579.5,168.5C 575.167,168.5 570.833,168.5 566.5,168.5C 566.5,147.167 566.5,125.833 566.5,104.5 Z"/></g>
<g><path style="opacity:1" fill="#f41922" d="M 598.5,104.5 C 600.167,104.5 601.833,104.5 603.5,104.5C 604.785,124.484 604.785,144.484 603.5,164.5C 602.833,146.833 602.167,129.167 601.5,111.5C 600.5,130.155 600.167,148.821 600.5,167.5C 598.511,146.86 597.845,125.86 598.5,104.5 Z"/></g>
<g><path style="opacity:1" fill="#e9555c" d="M 655.5,104.5 C 651.167,104.5 646.833,104.5 642.5,104.5C 642.5,118.833 642.5,133.167 642.5,147.5C 640.821,147.715 639.821,147.048 639.5,145.5C 640.117,145.611 640.617,145.944 641,146.5C 641.5,132.171 641.667,117.837 641.5,103.5C 646.363,103.181 651.03,103.514 655.5,104.5 Z"/></g>
<g><path style="opacity:1" fill="#fdbabf" d="M 859.5,103.5 C 859.5,103.833 859.5,104.167 859.5,104.5C 859.667,118.837 859.5,133.171 859,147.5C 858.283,146.956 857.783,146.289 857.5,145.5C 858.167,131.5 858.833,117.5 859.5,103.5 Z"/></g>
<g><path style="opacity:1" fill="#ed1d25" d="M 830.5,104.5 C 839.735,117.959 848.735,131.625 857.5,145.5C 857.783,146.289 858.283,146.956 859,147.5C 859.5,133.171 859.667,118.837 859.5,104.5C 863.833,104.5 868.167,104.5 872.5,104.5C 872.5,125.833 872.5,147.167 872.5,168.5C 867.5,168.5 862.5,168.5 857.5,168.5C 848.885,154.557 839.885,140.891 830.5,127.5C 830.443,126.391 830.11,125.391 829.5,124.5C 829.44,123.957 829.107,123.624 828.5,123.5C 827.501,138.485 827.167,153.485 827.5,168.5C 823.5,168.5 819.5,168.5 815.5,168.5C 815.5,147.167 815.5,125.833 815.5,104.5C 820.5,104.5 825.5,104.5 830.5,104.5 Z"/></g>
<g><path style="opacity:1" fill="#e86368" d="M 859.5,104.5 C 859.5,104.167 859.5,103.833 859.5,103.5C 864.167,103.5 868.833,103.5 873.5,103.5C 873.5,125.5 873.5,147.5 873.5,169.5C 867.974,169.821 862.64,169.488 857.5,168.5C 862.5,168.5 867.5,168.5 872.5,168.5C 872.5,147.167 872.5,125.833 872.5,104.5C 868.167,104.5 863.833,104.5 859.5,104.5 Z"/></g>
<g><path style="opacity:1" fill="#eb656b" d="M 927.5,104.5 C 914.989,104.171 902.655,104.505 890.5,105.5C 890.5,126.167 890.5,146.833 890.5,167.5C 902.989,168.495 915.656,168.829 928.5,168.5C 915.677,169.495 902.677,169.829 889.5,169.5C 889.5,147.5 889.5,125.5 889.5,103.5C 902.344,103.171 915.011,103.505 927.5,104.5 Z"/></g>
<g><path style="opacity:1" fill="#f61820" d="M 890.5,105.5 C 891.832,115.478 892.499,125.811 892.5,136.5C 892.499,147.189 891.832,157.522 890.5,167.5C 890.5,146.833 890.5,126.167 890.5,105.5 Z"/></g>
<g><path style="opacity:1" fill="#e32a2e" d="M 890.5,105.5 C 902.655,104.505 914.989,104.171 927.5,104.5C 927.5,108.167 927.5,111.833 927.5,115.5C 919.833,115.5 912.167,115.5 904.5,115.5C 911.678,114.833 919.011,114.167 926.5,113.5C 921.533,112.671 916.533,112.171 911.5,112C 915.833,111.667 920.167,111.333 924.5,111C 925.308,110.692 925.975,110.192 926.5,109.5C 915.854,108.501 905.187,108.168 894.5,108.5C 894.5,128.167 894.5,147.833 894.5,167.5C 905.5,167.5 916.5,167.5 927.5,167.5C 927.5,164.5 927.5,161.5 927.5,158.5C 920.159,158.666 912.826,158.5 905.5,158C 904.944,157.617 904.611,157.117 904.5,156.5C 912.5,156.5 920.5,156.5 928.5,156.5C 928.5,160.5 928.5,164.5 928.5,168.5C 915.656,168.829 902.989,168.495 890.5,167.5C 891.832,157.522 892.499,147.189 892.5,136.5C 892.499,125.811 891.832,115.478 890.5,105.5 Z"/></g>
<g><path style="opacity:1" fill="#cf4b4e" d="M 994.5,103.5 C 999.5,103.5 1004.5,103.5 1009.5,103.5C 1009.5,125.5 1009.5,147.5 1009.5,169.5C 1004.5,169.5 999.5,169.5 994.5,169.5C 994.5,147.5 994.5,125.5 994.5,103.5 Z"/></g>
<g><path style="opacity:1" fill="#ed1c25" d="M 1006.5,104.5 C 1005.1,105.648 1005.27,106.648 1007,107.5C 1007.5,127.831 1007.67,148.164 1007.5,168.5C 1003.5,168.5 999.5,168.5 995.5,168.5C 995.5,147.167 995.5,125.833 995.5,104.5C 999.167,104.5 1002.83,104.5 1006.5,104.5 Z"/></g>
<g><path style="opacity:1" fill="#fe1217" d="M 1006.5,104.5 C 1007.83,114.812 1008.5,125.478 1008.5,136.5C 1008.5,147.339 1008.17,158.005 1007.5,168.5C 1007.67,148.164 1007.5,127.831 1007,107.5C 1005.27,106.648 1005.1,105.648 1006.5,104.5 Z"/></g>
<g><path style="opacity:1" fill="#d75759" d="M 1269.5,104.5 C 1259.5,104.5 1249.5,104.5 1239.5,104.5C 1239.5,125.833 1239.5,147.167 1239.5,168.5C 1248.83,168.5 1258.17,168.5 1267.5,168.5C 1258.01,169.494 1248.35,169.827 1238.5,169.5C 1238.5,147.5 1238.5,125.5 1238.5,103.5C 1249.01,103.172 1259.35,103.506 1269.5,104.5 Z"/></g>
<g><path style="opacity:1" fill="#ec2128" d="M 1269.5,104.5 C 1283.15,107.138 1287.32,114.805 1282,127.5C 1279.44,130.531 1276.27,132.698 1272.5,134C 1278.05,135.058 1282.38,137.891 1285.5,142.5C 1286.05,145.807 1286.38,149.14 1286.5,152.5C 1284.49,162.841 1278.15,168.174 1267.5,168.5C 1258.17,168.5 1248.83,168.5 1239.5,168.5C 1239.5,147.167 1239.5,125.833 1239.5,104.5C 1249.5,104.5 1259.5,104.5 1269.5,104.5 Z"/></g>
<g><path style="opacity:1" fill="#e4fefb" d="M 1296.5,103.5 C 1297.83,113.979 1298.5,124.812 1298.5,136C 1298.17,146.833 1297.83,157.667 1297.5,168.5C 1296.5,146.844 1296.17,125.177 1296.5,103.5 Z"/></g>
<g><path style="opacity:1" fill="#f81622" d="M 1300.5,104.5 C 1301.17,104.5 1301.83,104.5 1302.5,104.5C 1302.5,125.5 1302.5,146.5 1302.5,167.5C 1300.51,146.86 1299.84,125.86 1300.5,104.5 Z"/></g>
<g><path style="opacity:1" fill="#e17175" d="M 1381.5,104.5 C 1371.5,104.5 1361.5,104.5 1351.5,104.5C 1351.5,125.833 1351.5,147.167 1351.5,168.5C 1356.17,168.5 1360.83,168.5 1365.5,168.5C 1360.69,169.487 1355.69,169.821 1350.5,169.5C 1350.5,147.5 1350.5,125.5 1350.5,103.5C 1361.01,103.172 1371.35,103.506 1381.5,104.5 Z"/></g>
<g><path style="opacity:1" fill="#db262e" d="M 1381.5,104.5 C 1383.8,105.06 1386.13,105.56 1388.5,106C 1389.06,106.383 1389.39,106.883 1389.5,107.5C 1377.11,105.597 1364.77,104.931 1352.5,105.5C 1352.5,126.167 1352.5,146.833 1352.5,167.5C 1354.5,167.5 1356.5,167.5 1358.5,167.5C 1358.83,158.167 1359.17,158.167 1359.5,167.5C 1361.17,167.5 1362.83,167.5 1364.5,167.5C 1364.17,159.316 1364.51,151.316 1365.5,143.5C 1365.5,151.833 1365.5,160.167 1365.5,168.5C 1360.83,168.5 1356.17,168.5 1351.5,168.5C 1351.5,147.167 1351.5,125.833 1351.5,104.5C 1361.5,104.5 1371.5,104.5 1381.5,104.5 Z"/></g>
<g><path style="opacity:1" fill="#ed1e26" d="M 1389.5,107.5 C 1393.15,108.989 1395.65,111.656 1397,115.5C 1399.35,126.976 1395.18,135.142 1384.5,140C 1392.26,148.361 1398.93,157.528 1404.5,167.5C 1399.36,168.488 1394.03,168.821 1388.5,168.5C 1384.53,162.338 1380.7,156.004 1377,149.5C 1375.3,147.627 1373.46,145.96 1371.5,144.5C 1369.74,143.539 1367.74,143.205 1365.5,143.5C 1364.51,151.316 1364.17,159.316 1364.5,167.5C 1362.83,167.5 1361.17,167.5 1359.5,167.5C 1359.17,158.167 1358.83,158.167 1358.5,167.5C 1356.5,167.5 1354.5,167.5 1352.5,167.5C 1352.5,146.833 1352.5,126.167 1352.5,105.5C 1364.77,104.931 1377.11,105.597 1389.5,107.5 Z"/></g>
<g><path style="opacity:1" fill="#fc9a9d" d="M 703.5,104.5 C 693.5,104.5 683.5,104.5 673.5,104.5C 672.503,125.66 672.169,146.993 672.5,168.5C 671.503,147.006 671.169,125.34 671.5,103.5C 682.346,103.172 693.013,103.506 703.5,104.5 Z"/></g>
<g><path style="opacity:1" fill="#eb2228" d="M 975.5,104.5 C 975.821,106.048 976.821,106.715 978.5,106.5C 978.815,110.371 978.482,114.038 977.5,117.5C 971.757,114.892 965.757,114.059 959.5,115C 952.342,117.825 951.676,121.825 957.5,127C 962.465,129.326 967.465,131.659 972.5,134C 982.906,141.125 985.072,150.292 979,161.5C 976.072,165.381 972.239,167.881 967.5,169C 959.5,169.667 951.5,169.667 943.5,169C 941.685,168.243 940.019,167.41 938.5,166.5C 938.182,161.968 938.515,157.634 939.5,153.5C 946.872,158.54 954.872,159.706 963.5,157C 967.5,153.333 967.5,149.667 963.5,146C 954.443,143.06 946.61,138.226 940,131.5C 934.785,119.635 937.952,110.969 949.5,105.5C 958.133,104.623 966.8,104.289 975.5,104.5 Z"/></g>
<g><path style="opacity:1" fill="#f87778" d="M 1166.5,105.5 C 1167.48,109.634 1167.82,113.968 1167.5,118.5C 1165.9,118.768 1164.57,118.434 1163.5,117.5C 1164.5,117.5 1165.5,117.5 1166.5,117.5C 1166.5,113.5 1166.5,109.5 1166.5,105.5 Z"/></g>
<g><path style="opacity:1" fill="#f2797e" d="M 1263.5,115.5 C 1260.17,115.5 1256.83,115.5 1253.5,115.5C 1253.5,120.167 1253.5,124.833 1253.5,129.5C 1252.51,124.695 1252.18,119.695 1252.5,114.5C 1256.37,114.185 1260.04,114.518 1263.5,115.5 Z"/></g>
<g><path style="opacity:1" fill="#d54445" d="M 673.5,104.5 C 673.5,125.5 673.5,146.5 673.5,167.5C 683.5,167.5 693.5,167.5 703.5,167.5C 702.391,168.29 701.058,168.79 699.5,169C 690.324,169.824 681.324,169.657 672.5,168.5C 672.169,146.993 672.503,125.66 673.5,104.5 Z"/></g>
<g><path style="opacity:1" fill="#faaeaf" d="M 1375.5,115.5 C 1372.5,115.5 1369.5,115.5 1366.5,115.5C 1366.5,121.167 1366.5,126.833 1366.5,132.5C 1369.5,132.5 1372.5,132.5 1375.5,132.5C 1372.38,133.479 1369.04,133.813 1365.5,133.5C 1365.5,127.167 1365.5,120.833 1365.5,114.5C 1369.04,114.187 1372.38,114.521 1375.5,115.5 Z"/></g>
<g><path style="opacity:1" fill="#f7f2f2" d="M 1263.5,115.5 C 1270.94,119.437 1271.27,123.937 1264.5,129C 1260.85,129.499 1257.18,129.665 1253.5,129.5C 1253.5,124.833 1253.5,120.167 1253.5,115.5C 1256.83,115.5 1260.17,115.5 1263.5,115.5 Z"/></g>
<g><path style="opacity:1" fill="#eb242a" d="M 386.5,79.5 C 405.643,81.4574 412.643,91.6241 407.5,110C 377.109,142.056 346.442,173.722 315.5,205C 308.14,208.286 300.807,208.286 293.5,205C 281.667,193.167 269.833,181.333 258,169.5C 249.482,157.143 250.982,146.31 262.5,137C 269.732,133.425 276.732,133.759 283.5,138C 290.321,144.987 297.321,151.821 304.5,158.5C 328.987,133.846 353.321,109.013 377.5,84C 380.592,82.4541 383.592,80.9541 386.5,79.5 Z"/></g>
<g><path style="opacity:1" fill="#f7f4f4" d="M 687.5,115.5 C 707.055,114.22 715.888,123.22 714,142.5C 709.168,154.337 700.335,159.003 687.5,156.5C 687.5,142.833 687.5,129.167 687.5,115.5 Z"/></g>
<g><path style="opacity:1" fill="#ffe5e6" d="M 814.5,104.5 C 814.5,126.167 814.5,147.833 814.5,169.5C 819.167,169.5 823.833,169.5 828.5,169.5C 828.171,154.324 828.504,139.324 829.5,124.5C 830.11,125.391 830.443,126.391 830.5,127.5C 830.667,141.504 830.5,155.504 830,169.5C 825.263,170.469 820.43,170.803 815.5,170.5C 815.649,171.552 815.483,172.552 815,173.5C 813.025,169.946 812.192,166.113 812.5,162C 813.068,142.67 813.734,123.503 814.5,104.5 Z"/></g>
<g><path style="opacity:1" fill="#ec2128" d="M 1155.5,103.5 C 1158.52,103.335 1161.52,103.502 1164.5,104C 1165.42,104.278 1166.08,104.778 1166.5,105.5C 1166.5,109.5 1166.5,113.5 1166.5,117.5C 1165.5,117.5 1164.5,117.5 1163.5,117.5C 1145.19,111.637 1134.52,117.971 1131.5,136.5C 1132.73,151.584 1140.73,158.417 1155.5,157C 1159.35,156.41 1163.01,155.243 1166.5,153.5C 1167.8,158.05 1167.8,162.55 1166.5,167C 1156.99,169.448 1147.32,170.115 1137.5,169C 1127.59,165.92 1121.25,159.42 1118.5,149.5C 1118.29,140.8 1118.62,132.133 1119.5,123.5C 1122.89,113.774 1129.56,107.441 1139.5,104.5C 1144.83,104.167 1150.17,103.833 1155.5,103.5 Z"/></g>
<g><path style="opacity:1" fill="#f6f5f3" d="M 1375.5,115.5 C 1382.81,118.142 1384.31,122.809 1380,129.5C 1378.73,130.883 1377.23,131.883 1375.5,132.5C 1372.5,132.5 1369.5,132.5 1366.5,132.5C 1366.5,126.833 1366.5,121.167 1366.5,115.5C 1369.5,115.5 1372.5,115.5 1375.5,115.5 Z"/></g>
<g><path style="opacity:1" fill="#ed2028" d="M 1192.5,111.5 C 1195.87,117.903 1198.87,124.57 1201.5,131.5C 1204.8,123.235 1208.47,115.235 1212.5,107.5C 1214.8,105.428 1217.63,104.428 1221,104.5C 1223.61,104.533 1225.78,105.2 1227.5,106.5C 1221.71,119.249 1215.38,131.583 1208.5,143.5C 1208.17,143.5 1207.83,143.5 1207.5,143.5C 1206.51,151.316 1206.17,159.316 1206.5,167.5C 1202.5,167.5 1198.5,167.5 1194.5,167.5C 1195.13,159.097 1194.47,151.097 1192.5,143.5C 1186.35,131.245 1180.35,118.912 1174.5,106.5C 1176.4,105.195 1178.73,104.529 1181.5,104.5C 1183.83,104.833 1186.17,105.167 1188.5,105.5C 1187.39,107.214 1188.06,107.881 1190.5,107.5C 1190.16,109.483 1190.82,110.817 1192.5,111.5 Z"/></g>
<g><path style="opacity:1" fill="#d63339" d="M 1119.5,123.5 C 1118.62,132.133 1118.29,140.8 1118.5,149.5C 1116.07,141.686 1115.91,133.686 1118,125.5C 1118.28,124.584 1118.78,123.918 1119.5,123.5 Z"/></g>
<g><path style="opacity:1" fill="#f7eeed" d="M 1055.5,129.5 C 1056.36,133.952 1057.7,138.286 1059.5,142.5C 1054.21,143.495 1048.87,143.828 1043.5,143.5C 1045.7,134.094 1048.2,124.76 1051,115.5C 1051.91,120.487 1053.41,125.154 1055.5,129.5 Z"/></g>
<g><path style="opacity:1" fill="#ef1b25" d="M 904.5,115.5 C 902.554,120.396 901.887,125.729 902.5,131.5C 909.833,131.5 917.167,131.5 924.5,131.5C 924.5,134.5 924.5,137.5 924.5,140.5C 917.646,140.176 910.979,140.509 904.5,141.5C 903.167,146.5 903.167,151.5 904.5,156.5C 904.611,157.117 904.944,157.617 905.5,158C 912.826,158.5 920.159,158.666 927.5,158.5C 927.5,161.5 927.5,164.5 927.5,167.5C 916.5,167.5 905.5,167.5 894.5,167.5C 894.5,147.833 894.5,128.167 894.5,108.5C 905.187,108.168 915.854,108.501 926.5,109.5C 925.975,110.192 925.308,110.692 924.5,111C 920.167,111.333 915.833,111.667 911.5,112C 916.533,112.171 921.533,112.671 926.5,113.5C 919.011,114.167 911.678,114.833 904.5,115.5 Z"/></g>
<g><path style="opacity:1" fill="#ed1d26" d="M 207.5,126.5 C 204.373,125.419 201.04,124.753 197.5,124.5C 195.359,123.837 193.025,123.503 190.5,123.5C 186.859,123.315 183.526,123.981 180.5,125.5C 178.585,125.216 176.919,125.549 175.5,126.5C 156.783,131.216 143.116,142.216 134.5,159.5C 132.744,160.552 132.077,162.219 132.5,164.5C 166.167,164.5 199.833,164.5 233.5,164.5C 233.5,177.167 233.5,189.833 233.5,202.5C 198.996,202.168 164.663,202.502 130.5,203.5C 130.232,205.099 130.566,206.432 131.5,207.5C 140.338,231.997 157.672,246.33 183.5,250.5C 188.316,251.65 193.316,251.816 198.5,251C 201.992,251.07 204.992,250.237 207.5,248.5C 218.773,245.024 228.773,239.191 237.5,231C 238.167,230.333 238.833,230.333 239.5,231C 247.015,238.348 254.348,245.848 261.5,253.5C 254.966,261.044 247.3,267.044 238.5,271.5C 236.326,271.75 234.659,272.75 233.5,274.5C 196.307,290.182 161.641,286.015 129.5,262C 112.779,247.393 102.113,229.226 97.5,207.5C 97.5905,204.848 96.9238,202.515 95.5,200.5C 95.5,192.167 95.5,183.833 95.5,175.5C 96.5,175.5 97.5,175.5 98.5,175.5C 97.8564,169.18 98.8564,163.18 101.5,157.5C 103.179,159.104 105.179,159.771 107.5,159.5C 107.649,158.448 107.483,157.448 107,156.5C 105.817,157.731 104.651,157.731 103.5,156.5C 102.652,154.591 102.318,152.591 102.5,150.5C 110.546,130.122 124.213,114.789 143.5,104.5C 145.441,104.131 147.275,103.464 149,102.5C 149.456,103.744 148.956,104.577 147.5,105C 148.833,105.667 150.167,105.667 151.5,105C 151.36,103.931 151.36,102.764 151.5,101.5C 153.843,100.077 156.343,99.0774 159,98.5C 160.326,98.7549 161.326,99.4216 162,100.5C 163.749,98.3326 165.583,96.3326 167.5,94.5C 199.548,86.781 228.548,93.281 254.5,114C 255.554,115.388 255.72,116.888 255,118.5C 247.625,125.708 240.458,133.041 233.5,140.5C 225.834,133.742 217.167,129.075 207.5,126.5 Z"/></g>
<g><path style="opacity:1" fill="#fed2d5" d="M 197.5,124.5 C 201.04,124.753 204.373,125.419 207.5,126.5C 196.833,125.167 186.167,125.167 175.5,126.5C 176.919,125.549 178.585,125.216 180.5,125.5C 186.13,124.708 191.797,124.375 197.5,124.5 Z"/></g>
<g><path style="opacity:1" fill="#db6065" d="M 197.5,124.5 C 191.797,124.375 186.13,124.708 180.5,125.5C 183.526,123.981 186.859,123.315 190.5,123.5C 193.025,123.503 195.359,123.837 197.5,124.5 Z"/></g>
<g><path style="opacity:1" fill="#fa161e" d="M 180.5,92.5 C 187.532,92.1697 194.532,92.503 201.5,93.5C 198,93.8333 194.5,94.1667 191,94.5C 187.098,94.4877 183.598,93.821 180.5,92.5 Z"/></g>
<g><path style="opacity:1" fill="#d82731" d="M 904.5,115.5 C 904.5,120.5 904.5,125.5 904.5,130.5C 911.5,130.5 918.5,130.5 925.5,130.5C 925.5,134.167 925.5,137.833 925.5,141.5C 918.5,141.5 911.5,141.5 904.5,141.5C 910.979,140.509 917.646,140.176 924.5,140.5C 924.5,137.5 924.5,134.5 924.5,131.5C 917.167,131.5 909.833,131.5 902.5,131.5C 901.887,125.729 902.554,120.396 904.5,115.5 Z"/></g>
<g><path style="opacity:1" fill="#fabdbd" d="M 729.5,131.5 C 730.647,135.646 730.814,139.98 730,144.5C 729.722,145.416 729.222,146.082 728.5,146.5C 729.329,141.547 729.663,136.547 729.5,131.5 Z"/></g>
<g><path style="opacity:1" fill="#f7f4f4" d="M 386.5,90.5 C 397.574,90.7307 401.407,96.064 398,106.5C 368.474,137.026 338.64,167.193 308.5,197C 305.5,197.667 302.5,197.667 299.5,197C 287.249,185.084 275.415,172.918 264,160.5C 261.1,154.077 262.6,148.91 268.5,145C 272.12,144.159 275.454,144.826 278.5,147C 286.833,155.333 295.167,163.667 303.5,172C 304.167,172.667 304.833,172.667 305.5,172C 332.142,144.192 359.142,117.025 386.5,90.5 Z"/></g>
<g><path style="opacity:1" fill="#db3335" d="M 597.5,104.5 C 597.833,104.5 598.167,104.5 598.5,104.5C 597.845,125.86 598.511,146.86 600.5,167.5C 603.5,167.5 606.5,167.5 609.5,167.5C 609.667,155.829 609.5,144.162 609,132.5C 608.237,135.063 607.737,135.063 607.5,132.5C 608.817,129.527 609.817,126.527 610.5,123.5C 610.5,138.5 610.5,153.5 610.5,168.5C 606.366,169.485 602.032,169.818 597.5,169.5C 597.5,147.833 597.5,126.167 597.5,104.5 Z"/></g>
<g><path style="opacity:1" fill="#fe9399" d="M 610.5,123.5 C 611.5,123.833 612.167,124.5 612.5,125.5C 611.833,139.833 611.167,154.167 610.5,168.5C 610.5,153.5 610.5,138.5 610.5,123.5 Z"/></g>
<g><path style="opacity:1" fill="#fee8e7" d="M 1314.5,116.5 C 1314.83,116.5 1315.17,116.5 1315.5,116.5C 1315.5,120.5 1315.5,124.5 1315.5,128.5C 1320.9,128.785 1326.23,128.451 1331.5,127.5C 1332.84,129.005 1334.51,129.672 1336.5,129.5C 1336.71,147.221 1337.71,147.554 1339.5,130.5C 1340.66,134.795 1340.83,139.129 1340,143.5C 1338.92,145.767 1337.42,145.934 1335.5,144C 1328.84,143.5 1322.17,143.334 1315.5,143.5C 1315.5,147.5 1315.5,151.5 1315.5,155.5C 1316.82,155.67 1317.99,155.337 1319,154.5C 1324.6,155.146 1330.1,155.813 1335.5,156.5C 1328.5,156.5 1321.5,156.5 1314.5,156.5C 1314.5,151.833 1314.5,147.167 1314.5,142.5C 1321.69,142.825 1328.69,142.491 1335.5,141.5C 1335.5,137.833 1335.5,134.167 1335.5,130.5C 1328.5,130.5 1321.5,130.5 1314.5,130.5C 1314.5,125.833 1314.5,121.167 1314.5,116.5 Z"/></g>
<g><path style="opacity:1" fill="#ee2027" d="M 1074.5,145.5 C 1074.72,148.784 1075.39,151.951 1076.5,155C 1074.89,156.049 1074.23,157.549 1074.5,159.5C 1072.5,159.5 1070.5,159.5 1068.5,159.5C 1068.76,158.022 1068.43,156.689 1067.5,155.5C 1066.91,155.709 1066.41,156.043 1066,156.5C 1064.99,154.105 1063.32,152.439 1061,151.5C 1053.61,152.098 1046.28,152.764 1039,153.5C 1038.01,152.57 1037.51,151.404 1037.5,150C 1039.37,145.605 1040.87,141.105 1042,136.5C 1042.19,139.036 1042.69,141.369 1043.5,143.5C 1048.87,143.828 1054.21,143.495 1059.5,142.5C 1057.7,138.286 1056.36,133.952 1055.5,129.5C 1056.32,127.545 1056.49,125.545 1056,123.5C 1055.67,124.5 1055.33,125.5 1055,126.5C 1053.33,121.858 1052.66,117.191 1053,112.5C 1051.98,111.366 1051.32,111.699 1051,113.5C 1050.5,113 1050,112.5 1049.5,112C 1052.68,107.478 1051.35,105.644 1045.5,106.5C 1045.5,108.167 1045.5,109.833 1045.5,111.5C 1044.5,111.5 1043.5,111.5 1042.5,111.5C 1042.5,109.5 1042.5,107.5 1042.5,105.5C 1045.09,104.184 1048.09,103.517 1051.5,103.5C 1054.5,103.833 1057.5,104.167 1060.5,104.5C 1065.47,118.092 1070.13,131.759 1074.5,145.5 Z"/></g>
<g><path style="opacity:1" fill="#ce4d52" d="M 904.5,141.5 C 911.5,141.5 918.5,141.5 925.5,141.5C 918.687,142.491 911.687,142.825 904.5,142.5C 904.5,147.167 904.5,151.833 904.5,156.5C 903.167,151.5 903.167,146.5 904.5,141.5 Z"/></g>
<g><path style="opacity:1" fill="#cb4a4f" d="M 1335.5,141.5 C 1328.69,142.491 1321.69,142.825 1314.5,142.5C 1314.5,147.167 1314.5,151.833 1314.5,156.5C 1313.51,151.695 1313.18,146.695 1313.5,141.5C 1320.83,141.5 1328.17,141.5 1335.5,141.5 Z"/></g>
<g><path style="opacity:1" fill="#f8c2c6" d="M 1365.5,143.5 C 1367.74,143.205 1369.74,143.539 1371.5,144.5C 1369.83,144.5 1368.17,144.5 1366.5,144.5C 1366.83,152.684 1366.49,160.684 1365.5,168.5C 1365.5,160.167 1365.5,151.833 1365.5,143.5 Z"/></g>
<g><path style="opacity:1" fill="#ec1f26" d="M 603.5,104.5 C 608.341,103.784 612.341,105.117 615.5,108.5C 623.746,120.655 631.746,132.988 639.5,145.5C 639.821,147.048 640.821,147.715 642.5,147.5C 642.5,133.167 642.5,118.833 642.5,104.5C 646.833,104.5 651.167,104.5 655.5,104.5C 655.5,125.833 655.5,147.167 655.5,168.5C 650.073,168.782 644.74,168.449 639.5,167.5C 630.526,153.518 621.526,139.518 612.5,125.5C 612.167,124.5 611.5,123.833 610.5,123.5C 609.817,126.527 608.817,129.527 607.5,132.5C 607.737,135.063 608.237,135.063 609,132.5C 609.5,144.162 609.667,155.829 609.5,167.5C 606.5,167.5 603.5,167.5 600.5,167.5C 600.167,148.821 600.5,130.155 601.5,111.5C 602.167,129.167 602.833,146.833 603.5,164.5C 604.785,144.484 604.785,124.484 603.5,104.5 Z"/></g>
<g><path style="opacity:1" fill="#e4676d" d="M 1285.5,142.5 C 1287.53,145.708 1287.86,149.041 1286.5,152.5C 1286.38,149.14 1286.05,145.807 1285.5,142.5 Z"/></g>
<g><path style="opacity:1" fill="#f7f2f0" d="M 1253.5,141.5 C 1258.6,141.175 1263.6,141.675 1268.5,143C 1272.42,147.261 1272.42,151.594 1268.5,156C 1263.74,158.144 1258.74,158.977 1253.5,158.5C 1253.5,152.833 1253.5,147.167 1253.5,141.5 Z"/></g>
<g><path style="opacity:1" fill="#e9242a" d="M 1042.5,105.5 C 1042.5,107.5 1042.5,109.5 1042.5,111.5C 1043.5,111.5 1044.5,111.5 1045.5,111.5C 1045.5,109.833 1045.5,108.167 1045.5,106.5C 1051.35,105.644 1052.68,107.478 1049.5,112C 1050,112.5 1050.5,113 1051,113.5C 1051.32,111.699 1051.98,111.366 1053,112.5C 1052.66,117.191 1053.33,121.858 1055,126.5C 1055.33,125.5 1055.67,124.5 1056,123.5C 1056.49,125.545 1056.32,127.545 1055.5,129.5C 1053.41,125.154 1051.91,120.487 1051,115.5C 1048.2,124.76 1045.7,134.094 1043.5,143.5C 1042.69,141.369 1042.19,139.036 1042,136.5C 1040.87,141.105 1039.37,145.605 1037.5,150C 1037.51,151.404 1038.01,152.57 1039,153.5C 1046.28,152.764 1053.61,152.098 1061,151.5C 1063.32,152.439 1064.99,154.105 1066,156.5C 1066.41,156.043 1066.91,155.709 1067.5,155.5C 1068.43,156.689 1068.76,158.022 1068.5,159.5C 1070.5,159.5 1072.5,159.5 1074.5,159.5C 1074.23,157.549 1074.89,156.049 1076.5,155C 1075.39,151.951 1074.72,148.784 1074.5,145.5C 1077.4,152.327 1080.07,159.327 1082.5,166.5C 1077.94,168.442 1072.94,169.108 1067.5,168.5C 1065.7,164.334 1064.03,160.001 1062.5,155.5C 1054.83,154.167 1047.17,154.167 1039.5,155.5C 1037.75,159.742 1036.42,164.076 1035.5,168.5C 1030.17,168.5 1024.83,168.5 1019.5,168.5C 1026.35,147.148 1034.02,126.148 1042.5,105.5 Z"/></g>
<g><path style="opacity:1" fill="#ec2128" d="M 779.5,104.5 C 773.491,104.334 767.491,104.501 761.5,105C 760.167,105.667 758.833,106.333 757.5,107C 756.167,107.667 756.167,108.333 757.5,109C 760.167,109.667 762.833,110.333 765.5,111C 764.663,112.011 764.33,113.178 764.5,114.5C 768.182,114.335 771.848,114.501 775.5,115C 776.416,115.278 777.082,115.778 777.5,116.5C 779.977,115.88 779.977,114.88 777.5,113.5C 778.025,112.808 778.692,112.308 779.5,112C 778.167,111.667 776.833,111.333 775.5,111C 777.833,110.667 780.167,110.333 782.5,110C 783.357,109.311 784.023,108.478 784.5,107.5C 782.816,106.85 781.483,105.85 780.5,104.5C 791.174,107.675 798.008,114.675 801,125.5C 804.826,141.35 800.659,154.517 788.5,165C 767.04,175.597 750.874,170.43 740,149.5C 734.315,128.839 740.815,113.672 759.5,104C 765.119,102.701 770.786,102.368 776.5,103C 777.737,103.232 778.737,103.732 779.5,104.5 Z"/></g>
<g><path style="opacity:1" fill="#d95a5c" d="M 754.5,130.5 C 754.081,136.986 754.748,143.319 756.5,149.5C 755.034,148.653 754.2,147.32 754,145.5C 753.184,140.316 753.35,135.316 754.5,130.5 Z"/></g>
<g><path style="opacity:1" fill="#f7f4f4" d="M 777.5,116.5 C 782.308,119.427 785.142,123.761 786,129.5C 788.762,141.234 785.262,150.4 775.5,157C 771.833,157.667 768.167,157.667 764.5,157C 761.308,154.972 758.641,152.472 756.5,149.5C 754.748,143.319 754.081,136.986 754.5,130.5C 757.325,117.919 764.992,113.253 777.5,116.5 Z"/></g>
<g><path style="opacity:1" fill="#f01b23" d="M 779.5,104.5 C 779.833,104.5 780.167,104.5 780.5,104.5C 781.483,105.85 782.816,106.85 784.5,107.5C 784.023,108.478 783.357,109.311 782.5,110C 780.167,110.333 777.833,110.667 775.5,111C 776.833,111.333 778.167,111.667 779.5,112C 778.692,112.308 778.025,112.808 777.5,113.5C 779.977,114.88 779.977,115.88 777.5,116.5C 777.082,115.778 776.416,115.278 775.5,115C 771.848,114.501 768.182,114.335 764.5,114.5C 764.33,113.178 764.663,112.011 765.5,111C 762.833,110.333 760.167,109.667 757.5,109C 756.167,108.333 756.167,107.667 757.5,107C 758.833,106.333 760.167,105.667 761.5,105C 767.491,104.501 773.491,104.334 779.5,104.5 Z"/></g>
<g><path style="opacity:1" fill="#c3434a" d="M 830.5,104.5 C 825.5,104.5 820.5,104.5 815.5,104.5C 815.5,125.833 815.5,147.167 815.5,168.5C 819.5,168.5 823.5,168.5 827.5,168.5C 827.167,153.485 827.501,138.485 828.5,123.5C 829.107,123.624 829.44,123.957 829.5,124.5C 828.504,139.324 828.171,154.324 828.5,169.5C 823.833,169.5 819.167,169.5 814.5,169.5C 814.5,147.833 814.5,126.167 814.5,104.5C 819.833,103.167 825.167,103.167 830.5,104.5 Z"/></g>
<g><path style="opacity:1" fill="#e06069" d="M 939.5,153.5 C 938.515,157.634 938.182,161.968 938.5,166.5C 937.188,161.985 937.188,157.318 938.5,152.5C 939.107,152.624 939.44,152.957 939.5,153.5 Z"/></g>
<g><path style="opacity:1" fill="#e53839" d="M 102.5,150.5 C 102.318,152.591 102.652,154.591 103.5,156.5C 104.651,157.731 105.817,157.731 107,156.5C 107.483,157.448 107.649,158.448 107.5,159.5C 105.179,159.771 103.179,159.104 101.5,157.5C 98.8564,163.18 97.8564,169.18 98.5,175.5C 97.5,175.5 96.5,175.5 95.5,175.5C 96.4565,166.68 98.7899,158.347 102.5,150.5 Z"/></g>
<g><path style="opacity:1" fill="#ee6a6c" d="M 134.5,159.5 C 133.766,160.708 133.433,162.041 133.5,163.5C 167.167,163.5 200.833,163.5 234.5,163.5C 234.5,163.833 234.5,164.167 234.5,164.5C 234.167,164.5 233.833,164.5 233.5,164.5C 199.833,164.5 166.167,164.5 132.5,164.5C 132.077,162.219 132.744,160.552 134.5,159.5 Z"/></g>
<g><path style="opacity:1" fill="#ec1d25" d="M 1302.5,104.5 C 1313.83,104.5 1325.17,104.5 1336.5,104.5C 1336.5,108.167 1336.5,111.833 1336.5,115.5C 1328.98,115.175 1321.65,115.508 1314.5,116.5C 1314.5,121.167 1314.5,125.833 1314.5,130.5C 1321.5,130.5 1328.5,130.5 1335.5,130.5C 1335.5,134.167 1335.5,137.833 1335.5,141.5C 1328.17,141.5 1320.83,141.5 1313.5,141.5C 1313.18,146.695 1313.51,151.695 1314.5,156.5C 1321.76,158.465 1329.43,159.132 1337.5,158.5C 1337.5,161.5 1337.5,164.5 1337.5,167.5C 1325.83,167.5 1314.17,167.5 1302.5,167.5C 1302.5,146.5 1302.5,125.5 1302.5,104.5 Z"/></g>
<g><path style="opacity:1" fill="#d82a32" d="M 1192.5,143.5 C 1194.47,151.097 1195.13,159.097 1194.5,167.5C 1198.5,167.5 1202.5,167.5 1206.5,167.5C 1206.17,159.316 1206.51,151.316 1207.5,143.5C 1207.5,151.833 1207.5,160.167 1207.5,168.5C 1202.83,168.5 1198.17,168.5 1193.5,168.5C 1193.77,160.112 1193.44,151.779 1192.5,143.5 Z"/></g>
<g><path style="opacity:1" fill="#df4a4a" d="M 1299.5,104.5 C 1299.83,104.5 1300.17,104.5 1300.5,104.5C 1299.84,125.86 1300.51,146.86 1302.5,167.5C 1314.17,167.5 1325.83,167.5 1337.5,167.5C 1337.5,164.5 1337.5,161.5 1337.5,158.5C 1329.43,159.132 1321.76,158.465 1314.5,156.5C 1321.5,156.5 1328.5,156.5 1335.5,156.5C 1336.5,156.5 1337.5,156.5 1338.5,156.5C 1338.5,160.833 1338.5,165.167 1338.5,169.5C 1325.5,169.5 1312.5,169.5 1299.5,169.5C 1299.5,147.833 1299.5,126.167 1299.5,104.5 Z"/></g>
<g><path style="opacity:1" fill="#fe99a0" d="M 639.5,167.5 C 644.74,168.449 650.073,168.782 655.5,168.5C 653.022,169.164 650.355,169.497 647.5,169.5C 644.41,169.478 641.743,168.812 639.5,167.5 Z"/></g>
<g><path style="opacity:1" fill="#fd989f" d="M 1082.5,166.5 C 1083.4,167.209 1083.74,168.209 1083.5,169.5C 1077.97,169.821 1072.64,169.488 1067.5,168.5C 1072.94,169.108 1077.94,168.442 1082.5,166.5 Z"/></g>
<g><path style="opacity:1" fill="#f1898e" d="M 1207.5,143.5 C 1207.83,143.5 1208.17,143.5 1208.5,143.5C 1208.5,152.167 1208.5,160.833 1208.5,169.5C 1203.31,169.821 1198.31,169.487 1193.5,168.5C 1198.17,168.5 1202.83,168.5 1207.5,168.5C 1207.5,160.167 1207.5,151.833 1207.5,143.5 Z"/></g>
<g><path style="opacity:1" fill="#fc969e" d="M 1404.5,167.5 C 1405.04,167.56 1405.38,167.893 1405.5,168.5C 1399.68,169.816 1394.01,169.816 1388.5,168.5C 1394.03,168.821 1399.36,168.488 1404.5,167.5 Z"/></g>
<g><path style="opacity:1" fill="#d6373d" d="M 69.5,168.5 C 68.7468,177.146 68.4135,185.812 68.5,194.5C 67.3439,186.677 67.1772,178.677 68,170.5C 68.2784,169.584 68.7784,168.918 69.5,168.5 Z"/></g>
<g><path style="opacity:1" fill="#ed6e77" d="M 370.5,184.5 C 370.5,184.833 370.5,185.167 370.5,185.5C 369.5,185.5 368.5,185.5 367.5,185.5C 365.833,185.5 364.167,185.5 362.5,185.5C 362.5,195.5 362.5,205.5 362.5,215.5C 362.5,215.833 362.5,216.167 362.5,216.5C 362.167,216.5 361.833,216.5 361.5,216.5C 361.5,205.833 361.5,195.167 361.5,184.5C 364.5,184.5 367.5,184.5 370.5,184.5 Z"/></g>
<g><path style="opacity:1" fill="#ed1c25" d="M 367.5,185.5 C 369.436,195.24 370.102,205.24 369.5,215.5C 367.167,215.5 364.833,215.5 362.5,215.5C 362.5,205.5 362.5,195.5 362.5,185.5C 364.167,185.5 365.833,185.5 367.5,185.5 Z"/></g>
<g><path style="opacity:1" fill="#dc252e" d="M 233.5,164.5 C 233.833,164.5 234.167,164.5 234.5,164.5C 234.5,177.5 234.5,190.5 234.5,203.5C 199.833,203.5 165.167,203.5 130.5,203.5C 164.663,202.502 198.996,202.168 233.5,202.5C 233.5,189.833 233.5,177.167 233.5,164.5 Z"/></g>
<g><path style="opacity:1" fill="#e37a7e" d="M 234.5,163.5 C 235.496,176.99 235.829,190.656 235.5,204.5C 200.833,204.5 166.167,204.5 131.5,204.5C 131.5,205.5 131.5,206.5 131.5,207.5C 130.566,206.432 130.232,205.099 130.5,203.5C 165.167,203.5 199.833,203.5 234.5,203.5C 234.5,190.5 234.5,177.5 234.5,164.5C 234.5,164.167 234.5,163.833 234.5,163.5 Z"/></g>
<g><path style="opacity:1" fill="#dd3839" d="M 31.5,143.5 C 31.0847,148.241 30.2513,152.907 29,157.5C 28.0103,176.997 28.5103,196.331 30.5,215.5C 29.144,212.423 28.3106,209.09 28,205.5C 26,188.167 26,170.833 28,153.5C 28.7013,149.891 29.8679,146.558 31.5,143.5 Z"/></g>
<g><path style="opacity:1" fill="#e98b88" d="M 95.5,200.5 C 96.9238,202.515 97.5905,204.848 97.5,207.5C 96.0762,205.485 95.4095,203.152 95.5,200.5 Z"/></g>
<g><path style="opacity:1" fill="#cc323d" d="M 367.5,185.5 C 368.5,185.5 369.5,185.5 370.5,185.5C 370.5,195.833 370.5,206.167 370.5,216.5C 367.833,216.5 365.167,216.5 362.5,216.5C 362.5,216.167 362.5,215.833 362.5,215.5C 364.833,215.5 367.167,215.5 369.5,215.5C 370.102,205.24 369.436,195.24 367.5,185.5 Z"/></g>
<g><path style="opacity:1" fill="#ee9ea2" d="M 842.5,215.5 C 836.642,215.178 830.975,215.511 825.5,216.5C 825.167,216.5 824.833,216.5 824.5,216.5C 827.087,215.184 830.087,214.517 833.5,214.5C 836.686,214.502 839.686,214.835 842.5,215.5 Z"/></g>
<g><path style="opacity:1" fill="#d3393e" d="M 1259.5,216.5 C 1250.15,215.387 1240.82,215.387 1231.5,216.5C 1232.26,215.732 1233.26,215.232 1234.5,215C 1238,214.833 1241.5,214.667 1245,214.5C 1250.1,214.293 1254.94,214.96 1259.5,216.5 Z"/></g>
<g><path style="opacity:1" fill="#d8323a" d="M 1268.5,215.5 C 1285.5,215.5 1302.5,215.5 1319.5,215.5C 1319.81,219.371 1319.48,223.038 1318.5,226.5C 1318.5,223.167 1318.5,219.833 1318.5,216.5C 1302.17,216.5 1285.83,216.5 1269.5,216.5C 1269.5,219.833 1269.5,223.167 1269.5,226.5C 1275.36,226.178 1281.02,226.511 1286.5,227.5C 1280.5,227.5 1274.5,227.5 1268.5,227.5C 1268.5,223.5 1268.5,219.5 1268.5,215.5 Z"/></g>
<g><path style="opacity:1" fill="#d62531" d="M 1352.5,215.5 C 1369.5,215.5 1386.5,215.5 1403.5,215.5C 1403.81,219.371 1403.48,223.038 1402.5,226.5C 1402.5,223.167 1402.5,219.833 1402.5,216.5C 1386.17,216.5 1369.83,216.5 1353.5,216.5C 1353.5,219.833 1353.5,223.167 1353.5,226.5C 1352.52,223.038 1352.19,219.371 1352.5,215.5 Z"/></g>
<g><path style="opacity:1" fill="#da3c41" d="M 1507.5,227.5 C 1507.17,227.5 1506.83,227.5 1506.5,227.5C 1512.5,226.833 1518.5,226.167 1524.5,225.5C 1524.5,222.5 1524.5,219.5 1524.5,216.5C 1507.83,216.5 1491.17,216.5 1474.5,216.5C 1474.5,219.833 1474.5,223.167 1474.5,226.5C 1479.17,226.5 1483.83,226.5 1488.5,226.5C 1489.79,226.263 1490.79,226.596 1491.5,227.5C 1485.5,227.5 1479.5,227.5 1473.5,227.5C 1473.5,223.5 1473.5,219.5 1473.5,215.5C 1490.83,215.5 1508.17,215.5 1525.5,215.5C 1525.5,219.5 1525.5,223.5 1525.5,227.5C 1519.5,227.5 1513.5,227.5 1507.5,227.5 Z"/></g>
<g><path style="opacity:1" fill="#da3a40" d="M 1534.5,216.5 C 1546.66,215.505 1558.99,215.171 1571.5,215.5C 1571.5,219.5 1571.5,223.5 1571.5,227.5C 1563.83,227.5 1556.17,227.5 1548.5,227.5C 1555.65,226.508 1562.98,226.175 1570.5,226.5C 1570.5,223.167 1570.5,219.833 1570.5,216.5C 1558.5,216.5 1546.5,216.5 1534.5,216.5 Z"/></g>
<g><path style="opacity:1" fill="#f51822" d="M 1524.5,225.5 C 1522.66,223.721 1521.99,221.388 1522.5,218.5C 1510.81,218.168 1499.15,218.501 1487.5,219.5C 1498.5,220.167 1509.5,220.833 1520.5,221.5C 1506.85,222.499 1493.18,222.833 1479.5,222.5C 1479.5,221.167 1479.5,219.833 1479.5,218.5C 1478.5,218.5 1477.5,218.5 1476.5,218.5C 1476.5,220.5 1476.5,222.5 1476.5,224.5C 1480.85,224.334 1485.18,224.501 1489.5,225C 1488.94,225.383 1488.61,225.883 1488.5,226.5C 1483.83,226.5 1479.17,226.5 1474.5,226.5C 1474.5,223.167 1474.5,219.833 1474.5,216.5C 1491.17,216.5 1507.83,216.5 1524.5,216.5C 1524.5,219.5 1524.5,222.5 1524.5,225.5 Z"/></g>
<g><path style="opacity:1" fill="#f11b23" d="M 1259.5,216.5 C 1259.5,218.5 1259.5,220.5 1259.5,222.5C 1256.84,222.838 1254.51,222.171 1252.5,220.5C 1251.57,221.689 1251.24,223.022 1251.5,224.5C 1244.67,224.876 1238.01,224.043 1231.5,222C 1230.09,221.632 1229.09,220.799 1228.5,219.5C 1229.99,218.859 1230.99,217.859 1231.5,216.5C 1240.82,215.387 1250.15,215.387 1259.5,216.5 Z"/></g>
<g><path style="opacity:1" fill="#fecfd3" d="M 1465.5,215.5 C 1466.83,231.672 1466.83,248.005 1465.5,264.5C 1464.82,265.602 1464.16,266.602 1463.5,267.5C 1463.96,264.518 1464.3,261.518 1464.5,258.5C 1465.5,244.343 1465.83,230.01 1465.5,215.5 Z"/></g>
<g><path style="opacity:1" fill="#f67d86" d="M 1260.5,216.5 C 1261.48,220.634 1261.82,224.968 1261.5,229.5C 1260.21,229.737 1259.21,229.404 1258.5,228.5C 1260.42,224.971 1261.09,220.971 1260.5,216.5 Z"/></g>
<g><path style="opacity:1" fill="#f01b24" d="M 580.5,227.5 C 578.833,227.5 577.167,227.5 575.5,227.5C 575.119,229.942 575.786,230.609 577.5,229.5C 578.795,233.886 578.628,238.219 577,242.5C 576.667,242.167 576.333,241.833 576,241.5C 575.694,245.336 575.528,249.003 575.5,252.5C 578.073,255.653 579.406,259.32 579.5,263.5C 578.5,263.5 577.5,263.5 576.5,263.5C 576.662,261.473 576.495,259.473 576,257.5C 575.501,262.489 575.334,267.489 575.5,272.5C 596.792,272.841 596.792,273.841 575.5,275.5C 584.833,276.167 594.167,276.833 603.5,277.5C 593.856,278.498 584.19,278.832 574.5,278.5C 574.667,259.83 574.5,241.164 574,222.5C 572.846,230.842 572.346,239.342 572.5,248C 572.514,256.546 572.847,265.046 573.5,273.5C 572.675,274.386 571.675,274.719 570.5,274.5C 570.5,256.5 570.5,238.5 570.5,220.5C 577.532,220.83 584.532,220.497 591.5,219.5C 583.862,218.503 576.196,218.169 568.5,218.5C 568.667,236.17 568.5,253.836 568,271.5C 567.831,255.328 567.331,239.328 566.5,223.5C 566.5,220.833 566.5,218.167 566.5,215.5C 578.5,215.5 590.5,215.5 602.5,215.5C 602.5,219.167 602.5,222.833 602.5,226.5C 594.981,226.175 587.648,226.508 580.5,227.5 Z"/></g>
<g><path style="opacity:1" fill="#da4647" d="M 698.5,261.5 C 697.883,261.389 697.383,261.056 697,260.5C 696.5,245.837 696.333,231.17 696.5,216.5C 692.5,216.5 688.5,216.5 684.5,216.5C 684.5,232.167 684.5,247.833 684.5,263.5C 683.71,262.391 683.21,261.058 683,259.5C 682.5,244.837 682.333,230.17 682.5,215.5C 687.5,215.5 692.5,215.5 697.5,215.5C 697.198,230.881 697.531,246.215 698.5,261.5 Z"/></g>
<g><path style="opacity:1" fill="#ee1c25" d="M 1402.5,226.5 C 1396.64,226.178 1390.98,226.511 1385.5,227.5C 1384.5,244.325 1384.17,261.325 1384.5,278.5C 1380.17,278.5 1375.83,278.5 1371.5,278.5C 1371.83,261.325 1371.5,244.325 1370.5,227.5C 1365.02,226.511 1359.36,226.178 1353.5,226.5C 1353.5,223.167 1353.5,219.833 1353.5,216.5C 1369.83,216.5 1386.17,216.5 1402.5,216.5C 1402.5,219.833 1402.5,223.167 1402.5,226.5 Z"/></g>
<g><path style="opacity:1" fill="#f8f2f2" d="M 433.5,184.5 C 434.768,186.905 435.435,189.572 435.5,192.5C 437.484,192.383 439.15,193.05 440.5,194.5C 439.391,196.385 438.557,198.385 438,200.5C 437.333,199.167 436.667,199.167 436,200.5C 435.667,198.833 435.333,197.167 435,195.5C 434.282,194.549 433.449,194.383 432.5,195C 433.331,199.679 434.998,204.013 437.5,208C 436.484,208.519 435.818,209.353 435.5,210.5C 436.01,213.407 436.677,216.241 437.5,219C 436.975,219.692 436.308,220.192 435.5,220.5C 429.387,218.599 423.053,217.932 416.5,218.5C 416.5,219.5 416.5,220.5 416.5,221.5C 414.712,221.215 413.045,221.548 411.5,222.5C 412.668,223.906 412.335,225.072 410.5,226C 405.279,226.542 405.279,227.376 410.5,228.5C 409.193,229.865 409.193,231.198 410.5,232.5C 408.901,232.232 407.568,232.566 406.5,233.5C 406.5,235.5 406.5,237.5 406.5,239.5C 405.5,239.5 404.5,239.5 403.5,239.5C 403.5,240.833 403.5,242.167 403.5,243.5C 404.5,243.5 405.5,243.5 406.5,243.5C 406.179,249.026 406.512,254.36 407.5,259.5C 407.414,260.496 407.748,261.329 408.5,262C 410.81,262.497 413.143,262.663 415.5,262.5C 414.391,263.29 413.058,263.79 411.5,264C 412.227,265.399 412.727,266.899 413,268.5C 416.199,262.898 417.033,263.231 415.5,269.5C 410.57,270.763 405.57,271.263 400.5,271C 402.285,269.837 404.285,269.17 406.5,269C 404.887,266.772 404.22,264.272 404.5,261.5C 399.764,261.883 394.931,262.883 390,264.5C 386.534,262.819 386.7,261.819 390.5,261.5C 390.19,258.287 390.523,255.287 391.5,252.5C 391.5,255.833 391.5,259.167 391.5,262.5C 393.167,262.5 394.833,262.5 396.5,262.5C 396.825,254.648 396.492,246.982 395.5,239.5C 394.5,239.5 393.5,239.5 392.5,239.5C 391.527,241.948 391.194,244.615 391.5,247.5C 390.85,247.196 390.183,246.863 389.5,246.5C 389.167,247.833 388.833,249.167 388.5,250.5C 388.954,253.238 389.287,255.738 389.5,258C 388.552,258.483 387.552,258.649 386.5,258.5C 385.135,261.895 384.302,265.228 384,268.5C 381.343,266.674 378.843,264.674 376.5,262.5C 378.857,262.663 381.19,262.497 383.5,262C 384.337,260.989 384.67,259.822 384.5,258.5C 382.167,258.5 379.833,258.5 377.5,258.5C 377.5,253.5 377.5,248.5 377.5,243.5C 379.833,243.5 382.167,243.5 384.5,243.5C 384.5,242.167 384.5,240.833 384.5,239.5C 386.257,240.292 387.591,241.625 388.5,243.5C 388.833,242.833 389.167,242.167 389.5,241.5C 388.64,239.728 387.307,238.395 385.5,237.5C 386.724,235.161 386.724,232.828 385.5,230.5C 384.313,231.894 383.646,231.727 383.5,230C 384.032,227.98 385.365,227.147 387.5,227.5C 388.449,225.263 389.116,222.929 389.5,220.5C 390.833,220.5 392.167,220.5 393.5,220.5C 393.5,221.5 393.5,222.5 393.5,223.5C 399.774,223.329 400.441,221.995 395.5,219.5C 391.89,218.272 388.39,218.605 385,220.5C 380.724,217.884 378.224,219.217 377.5,224.5C 376.5,224.5 375.5,224.5 374.5,224.5C 374.5,222.833 374.5,221.167 374.5,219.5C 370.197,218.139 365.864,217.139 361.5,216.5C 361.833,216.5 362.167,216.5 362.5,216.5C 365.167,216.5 367.833,216.5 370.5,216.5C 370.5,206.167 370.5,195.833 370.5,185.5C 370.5,185.167 370.5,184.833 370.5,184.5C 371.3,191.17 371.967,198.003 372.5,205C 373.382,209.472 374.049,209.306 374.5,204.5C 378.532,214.352 385.865,218.185 396.5,216C 399.837,215.335 402.503,213.669 404.5,211C 403.876,208.709 402.376,207.543 400,207.5C 387.682,212.501 382.349,208.501 384,195.5C 388.933,190.518 394.266,190.185 400,194.5C 406.139,191.387 405.972,188.554 399.5,186C 395.582,184.844 391.582,184.344 387.5,184.5C 390.889,182.018 394.556,182.018 398.5,184.5C 400.761,182.466 403.428,181.3 406.5,181C 407.337,179.989 407.67,178.822 407.5,177.5C 408.552,177.351 409.552,177.517 410.5,178C 409.62,179.356 409.286,180.856 409.5,182.5C 416.841,182.334 424.174,182.5 431.5,183C 432.416,183.278 433.082,183.778 433.5,184.5 Z"/></g>
<g><path style="opacity:1" fill="#db242c" d="M 433.5,185.5 C 433.5,187.167 433.5,188.833 433.5,190.5C 427.833,190.5 422.167,190.5 416.5,190.5C 416.5,193.167 416.5,195.833 416.5,198.5C 417.5,198.5 418.5,198.5 419.5,198.5C 418.432,199.434 417.099,199.768 415.5,199.5C 415.5,196.167 415.5,192.833 415.5,189.5C 421.167,189.5 426.833,189.5 432.5,189.5C 432.5,188.5 432.5,187.5 432.5,186.5C 425.167,186.5 417.833,186.5 410.5,186.5C 410.5,195.833 410.5,205.167 410.5,214.5C 417.863,214.831 425.197,214.497 432.5,213.5C 427.015,212.833 421.681,212.167 416.5,211.5C 422.167,211.5 427.833,211.5 433.5,211.5C 433.5,212.833 433.5,214.167 433.5,215.5C 425.5,215.5 417.5,215.5 409.5,215.5C 409.5,205.5 409.5,195.5 409.5,185.5C 417.5,185.5 425.5,185.5 433.5,185.5 Z"/></g>
<g><path style="opacity:1" fill="#ee1c25" d="M 419.5,198.5 C 423.5,198.5 427.5,198.5 431.5,198.5C 431.5,200.167 431.5,201.833 431.5,203.5C 426.833,203.5 422.167,203.5 417.5,203.5C 416.527,205.948 416.194,208.615 416.5,211.5C 421.681,212.167 427.015,212.833 432.5,213.5C 425.197,214.497 417.863,214.831 410.5,214.5C 410.5,205.167 410.5,195.833 410.5,186.5C 417.833,186.5 425.167,186.5 432.5,186.5C 432.5,187.5 432.5,188.5 432.5,189.5C 426.833,189.5 421.167,189.5 415.5,189.5C 415.5,192.833 415.5,196.167 415.5,199.5C 417.099,199.768 418.432,199.434 419.5,198.5 Z"/></g>
<g><path style="opacity:1" fill="#f3858c" d="M 433.5,190.5 C 428.36,191.488 423.026,191.821 417.5,191.5C 417.5,193.5 417.5,195.5 417.5,197.5C 422.5,197.5 427.5,197.5 432.5,197.5C 432.5,199.833 432.5,202.167 432.5,204.5C 427.5,204.5 422.5,204.5 417.5,204.5C 417.5,204.167 417.5,203.833 417.5,203.5C 422.167,203.5 426.833,203.5 431.5,203.5C 431.5,201.833 431.5,200.167 431.5,198.5C 427.5,198.5 423.5,198.5 419.5,198.5C 418.5,198.5 417.5,198.5 416.5,198.5C 416.5,195.833 416.5,193.167 416.5,190.5C 422.167,190.5 427.833,190.5 433.5,190.5 Z"/></g>
<g><path style="opacity:1" fill="#d0555a" d="M 433.5,184.5 C 433.5,184.833 433.5,185.167 433.5,185.5C 425.5,185.5 417.5,185.5 409.5,185.5C 409.5,195.5 409.5,205.5 409.5,215.5C 417.5,215.5 425.5,215.5 433.5,215.5C 433.5,214.167 433.5,212.833 433.5,211.5C 427.833,211.5 422.167,211.5 416.5,211.5C 416.194,208.615 416.527,205.948 417.5,203.5C 417.5,203.833 417.5,204.167 417.5,204.5C 417.5,206.5 417.5,208.5 417.5,210.5C 423.167,210.5 428.833,210.5 434.5,210.5C 434.5,212.5 434.5,214.5 434.5,216.5C 425.833,216.5 417.167,216.5 408.5,216.5C 408.5,205.833 408.5,195.167 408.5,184.5C 416.833,184.5 425.167,184.5 433.5,184.5 Z"/></g>
<g><path style="opacity:1" fill="#e92c30" d="M 387.5,184.5 C 391.582,184.344 395.582,184.844 399.5,186C 405.972,188.554 406.139,191.387 400,194.5C 394.266,190.185 388.933,190.518 384,195.5C 382.349,208.501 387.682,212.501 400,207.5C 402.376,207.543 403.876,208.709 404.5,211C 402.503,213.669 399.837,215.335 396.5,216C 385.865,218.185 378.532,214.352 374.5,204.5C 374.011,194.662 378.345,187.996 387.5,184.5 Z"/></g>
<g><path style="opacity:1" fill="#e91f27" d="M 580.5,227.5 C 580.5,232.167 580.5,236.833 580.5,241.5C 587.5,241.5 594.5,241.5 601.5,241.5C 601.5,245.5 601.5,249.5 601.5,253.5C 594.5,253.5 587.5,253.5 580.5,253.5C 580.5,258.167 580.5,262.833 580.5,267.5C 588.316,268.492 596.316,268.826 604.5,268.5C 604.5,272.167 604.5,275.833 604.5,279.5C 591.833,279.5 579.167,279.5 566.5,279.5C 566.5,260.833 566.5,242.167 566.5,223.5C 567.331,239.328 567.831,255.328 568,271.5C 568.5,253.836 568.667,236.17 568.5,218.5C 576.196,218.169 583.862,218.503 591.5,219.5C 584.532,220.497 577.532,220.83 570.5,220.5C 570.5,238.5 570.5,256.5 570.5,274.5C 571.675,274.719 572.675,274.386 573.5,273.5C 572.847,265.046 572.514,256.546 572.5,248C 572.346,239.342 572.846,230.842 574,222.5C 574.5,241.164 574.667,259.83 574.5,278.5C 584.19,278.832 593.856,278.498 603.5,277.5C 594.167,276.833 584.833,276.167 575.5,275.5C 596.792,273.841 596.792,272.841 575.5,272.5C 575.334,267.489 575.501,262.489 576,257.5C 576.495,259.473 576.662,261.473 576.5,263.5C 577.5,263.5 578.5,263.5 579.5,263.5C 579.406,259.32 578.073,255.653 575.5,252.5C 575.528,249.003 575.694,245.336 576,241.5C 576.333,241.833 576.667,242.167 577,242.5C 578.628,238.219 578.795,233.886 577.5,229.5C 575.786,230.609 575.119,229.942 575.5,227.5C 577.167,227.5 578.833,227.5 580.5,227.5 Z"/></g>
<g><path style="opacity:1" fill="#d53a3c" d="M 647.5,216.5 C 646.833,216.5 646.167,216.5 645.5,216.5C 635.833,216.5 626.167,216.5 616.5,216.5C 615.845,237.527 616.512,258.194 618.5,278.5C 628.5,278.5 638.5,278.5 648.5,278.5C 647.048,279.302 645.382,279.802 643.5,280C 634.173,280.5 624.839,280.666 615.5,280.5C 615.5,258.833 615.5,237.167 615.5,215.5C 626.346,215.172 637.013,215.506 647.5,216.5 Z"/></g>
<g><path style="opacity:1" fill="#fa171e" d="M 645.5,216.5 C 636.895,218.471 627.895,219.138 618.5,218.5C 618.5,238.5 618.5,258.5 618.5,278.5C 616.512,258.194 615.845,237.527 616.5,216.5C 626.167,216.5 635.833,216.5 645.5,216.5 Z"/></g>
<g><path style="opacity:1" fill="#ee1e25" d="M 698.5,261.5 C 702.869,268.232 708.869,270.065 716.5,267C 719.091,264.643 720.758,261.809 721.5,258.5C 722.496,244.677 722.829,230.677 722.5,216.5C 726.833,216.5 731.167,216.5 735.5,216.5C 735.5,230.167 735.5,243.833 735.5,257.5C 735.179,270.66 728.512,278.493 715.5,281C 703.033,283.591 693.199,279.758 686,269.5C 685.495,267.482 684.995,265.482 684.5,263.5C 684.5,247.833 684.5,232.167 684.5,216.5C 688.5,216.5 692.5,216.5 696.5,216.5C 696.333,231.17 696.5,245.837 697,260.5C 697.383,261.056 697.883,261.389 698.5,261.5 Z"/></g>
<g><path style="opacity:1" fill="#db444c" d="M 796.5,216.5 C 797.812,221.015 797.812,225.682 796.5,230.5C 795.893,230.376 795.56,230.043 795.5,229.5C 796.485,225.366 796.818,221.032 796.5,216.5 Z"/></g>
<g><path style="opacity:1" fill="#fb161d" d="M 1076.5,278.5 C 1076.5,258.5 1076.5,238.5 1076.5,218.5C 1073.83,218.5 1071.17,218.5 1068.5,218.5C 1069.15,231.876 1068.48,244.876 1066.5,257.5C 1066.5,243.833 1066.5,230.167 1066.5,216.5C 1070.5,216.5 1074.5,216.5 1078.5,216.5C 1079.16,237.527 1078.49,258.194 1076.5,278.5 Z"/></g>
<g><path style="opacity:1" fill="#d6383d" d="M 1059.5,271.5 C 1061.01,272.502 1062.68,273.169 1064.5,273.5C 1064.29,275.144 1064.62,276.644 1065.5,278C 1069.15,278.499 1072.82,278.665 1076.5,278.5C 1078.49,258.194 1079.16,237.527 1078.5,216.5C 1074.5,216.5 1070.5,216.5 1066.5,216.5C 1066.5,230.167 1066.5,243.833 1066.5,257.5C 1066.63,258.239 1066.46,258.906 1066,259.5C 1064.58,258.922 1063.75,257.922 1063.5,256.5C 1064.12,256.611 1064.62,256.944 1065,257.5C 1065.5,243.504 1065.67,229.504 1065.5,215.5C 1070.17,215.5 1074.83,215.5 1079.5,215.5C 1079.5,237.167 1079.5,258.833 1079.5,280.5C 1074.46,280.827 1069.46,280.494 1064.5,279.5C 1062.32,277.142 1060.66,274.475 1059.5,271.5 Z"/></g>
<g><path style="opacity:1" fill="#e9242a" d="M 1119.5,215.5 C 1124.5,215.5 1129.5,215.5 1134.5,215.5C 1134.5,237.167 1134.5,258.833 1134.5,280.5C 1129.5,280.5 1124.5,280.5 1119.5,280.5C 1119.5,258.833 1119.5,237.167 1119.5,215.5 Z"/></g>
<g><path style="opacity:1" fill="#ca2f38" d="M 1167.5,218.5 C 1166.39,218.443 1165.39,218.11 1164.5,217.5C 1160.03,216.514 1155.36,216.181 1150.5,216.5C 1150.5,237.167 1150.5,257.833 1150.5,278.5C 1154.17,278.5 1157.83,278.5 1161.5,278.5C 1161.83,278.5 1162.17,278.5 1162.5,278.5C 1158.37,279.485 1154.03,279.818 1149.5,279.5C 1149.5,258.167 1149.5,236.833 1149.5,215.5C 1154.84,215.334 1160.18,215.501 1165.5,216C 1166.38,216.708 1167.05,217.542 1167.5,218.5 Z"/></g>
<g><path style="opacity:1" fill="#ee7377" d="M 1207.5,215.5 C 1203.17,215.5 1198.83,215.5 1194.5,215.5C 1194.5,228.167 1194.5,240.833 1194.5,253.5C 1194.5,254.167 1194.5,254.833 1194.5,255.5C 1194.66,256.873 1194.49,258.207 1194,259.5C 1193.28,258.956 1192.78,258.289 1192.5,257.5C 1193.5,243.343 1193.83,229.01 1193.5,214.5C 1198.36,214.181 1203.03,214.514 1207.5,215.5 Z"/></g>
<g><path style="opacity:1" fill="#ee1c25" d="M 1318.5,226.5 C 1312.64,226.178 1306.98,226.511 1301.5,227.5C 1300.5,244.325 1300.17,261.325 1300.5,278.5C 1296.5,278.5 1292.5,278.5 1288.5,278.5C 1288.83,261.325 1288.5,244.325 1287.5,227.5C 1287.17,227.5 1286.83,227.5 1286.5,227.5C 1281.02,226.511 1275.36,226.178 1269.5,226.5C 1269.5,223.167 1269.5,219.833 1269.5,216.5C 1285.83,216.5 1302.17,216.5 1318.5,216.5C 1318.5,219.833 1318.5,223.167 1318.5,226.5 Z"/></g>
<g><path style="opacity:1" fill="#d96c72" d="M 1329.5,215.5 C 1329.5,236.833 1329.5,258.167 1329.5,279.5C 1334.17,279.5 1338.83,279.5 1343.5,279.5C 1338.69,280.487 1333.69,280.821 1328.5,280.5C 1328.17,258.66 1328.5,236.994 1329.5,215.5 Z"/></g>
<g><path style="opacity:1" fill="#da252d" d="M 1329.5,215.5 C 1334.36,215.181 1339.03,215.514 1343.5,216.5C 1339.17,216.5 1334.83,216.5 1330.5,216.5C 1330.5,237.167 1330.5,257.833 1330.5,278.5C 1334.83,278.5 1339.17,278.5 1343.5,278.5C 1343.5,278.833 1343.5,279.167 1343.5,279.5C 1338.83,279.5 1334.17,279.5 1329.5,279.5C 1329.5,258.167 1329.5,236.833 1329.5,215.5 Z"/></g>
<g><path style="opacity:1" fill="#ed1c24" d="M 1343.5,216.5 C 1343.5,237.167 1343.5,257.833 1343.5,278.5C 1339.17,278.5 1334.83,278.5 1330.5,278.5C 1330.5,257.833 1330.5,237.167 1330.5,216.5C 1334.83,216.5 1339.17,216.5 1343.5,216.5 Z"/></g>
<g><path style="opacity:1" fill="#dc5a5c" d="M 1426.5,258.5 C 1425.5,244.343 1425.17,230.01 1425.5,215.5C 1421.17,215.5 1416.83,215.5 1412.5,215.5C 1412.26,231.521 1412.6,247.521 1413.5,263.5C 1412.71,262.391 1412.21,261.058 1412,259.5C 1411.5,244.504 1411.33,229.504 1411.5,214.5C 1416.5,214.5 1421.5,214.5 1426.5,214.5C 1426.5,229.167 1426.5,243.833 1426.5,258.5 Z"/></g>
<g><path style="opacity:1" fill="#d94241" d="M 1465.5,215.5 C 1465.83,230.01 1465.5,244.343 1464.5,258.5C 1464.5,244.5 1464.5,230.5 1464.5,216.5C 1460.5,216.5 1456.5,216.5 1452.5,216.5C 1452.67,230.171 1452.5,243.837 1452,257.5C 1451.72,258.416 1451.22,259.082 1450.5,259.5C 1450.5,244.833 1450.5,230.167 1450.5,215.5C 1455.5,215.5 1460.5,215.5 1465.5,215.5 Z"/></g>
<g><path style="opacity:1" fill="#eb2027" d="M 824.5,216.5 C 824.833,216.5 825.167,216.5 825.5,216.5C 831.167,216.5 836.833,216.5 842.5,216.5C 842.5,218.5 842.5,220.5 842.5,222.5C 839.15,222.335 835.817,222.502 832.5,223C 832.957,223.414 833.291,223.914 833.5,224.5C 831.87,227.276 831.203,230.276 831.5,233.5C 829.496,240.511 827.496,247.511 825.5,254.5C 830.833,254.5 836.167,254.5 841.5,254.5C 841.371,252.784 841.038,251.117 840.5,249.5C 840.342,246.639 841.008,243.972 842.5,241.5C 841.964,239.058 841.131,236.725 840,234.5C 839.395,236.481 838.395,236.815 837,235.5C 836.333,231.833 836.333,228.167 837,224.5C 838.183,223.269 839.349,223.269 840.5,224.5C 838.983,228.094 839.816,231.094 843,233.5C 843.483,232.552 843.649,231.552 843.5,230.5C 844.833,230.5 846.167,230.5 847.5,230.5C 847.263,231.791 847.596,232.791 848.5,233.5C 854.431,247.852 859.764,262.519 864.5,277.5C 859.944,279.442 854.944,280.108 849.5,279.5C 847.97,274.907 846.636,270.24 845.5,265.5C 837.5,265.5 829.5,265.5 821.5,265.5C 820.478,270.254 819.145,274.921 817.5,279.5C 812.305,279.821 807.305,279.487 802.5,278.5C 809.65,257.713 816.983,237.047 824.5,216.5 Z"/></g>
<g><path style="opacity:1" fill="#ea6b6f" d="M 580.5,227.5 C 587.648,226.508 594.981,226.175 602.5,226.5C 602.5,222.833 602.5,219.167 602.5,215.5C 590.5,215.5 578.5,215.5 566.5,215.5C 566.5,218.167 566.5,220.833 566.5,223.5C 566.5,242.167 566.5,260.833 566.5,279.5C 566.167,279.5 565.833,279.5 565.5,279.5C 565.5,257.833 565.5,236.167 565.5,214.5C 578.167,214.5 590.833,214.5 603.5,214.5C 603.5,218.833 603.5,223.167 603.5,227.5C 595.833,227.5 588.167,227.5 580.5,227.5 Z"/></g>
<g><path style="opacity:1" fill="#e52a2f" d="M 825.5,216.5 C 830.975,215.511 836.642,215.178 842.5,215.5C 845.102,221.214 847.102,227.214 848.5,233.5C 847.596,232.791 847.263,231.791 847.5,230.5C 846.167,230.5 844.833,230.5 843.5,230.5C 843.649,231.552 843.483,232.552 843,233.5C 839.816,231.094 838.983,228.094 840.5,224.5C 839.349,223.269 838.183,223.269 837,224.5C 836.333,228.167 836.333,231.833 837,235.5C 838.395,236.815 839.395,236.481 840,234.5C 841.131,236.725 841.964,239.058 842.5,241.5C 841.008,243.972 840.342,246.639 840.5,249.5C 838.315,242.794 835.815,236.128 833,229.5C 832.79,231.058 832.29,232.391 831.5,233.5C 831.203,230.276 831.87,227.276 833.5,224.5C 833.291,223.914 832.957,223.414 832.5,223C 835.817,222.502 839.15,222.335 842.5,222.5C 842.5,220.5 842.5,218.5 842.5,216.5C 836.833,216.5 831.167,216.5 825.5,216.5 Z"/></g>
<g><path style="opacity:1" fill="#e6747a" d="M 1268.5,215.5 C 1285.66,214.503 1302.99,214.17 1320.5,214.5C 1320.5,218.833 1320.5,223.167 1320.5,227.5C 1314.17,227.5 1307.83,227.5 1301.5,227.5C 1306.98,226.511 1312.64,226.178 1318.5,226.5C 1319.48,223.038 1319.81,219.371 1319.5,215.5C 1302.5,215.5 1285.5,215.5 1268.5,215.5 Z"/></g>
<g><path style="opacity:1" fill="#ef7378" d="M 1352.5,215.5 C 1352.19,219.371 1352.52,223.038 1353.5,226.5C 1359.36,226.178 1365.02,226.511 1370.5,227.5C 1364.17,227.5 1357.83,227.5 1351.5,227.5C 1351.18,223.298 1351.52,219.298 1352.5,215.5 Z"/></g>
<g><path style="opacity:1" fill="#e97274" d="M 1403.5,215.5 C 1404.48,219.298 1404.82,223.298 1404.5,227.5C 1398.17,227.5 1391.83,227.5 1385.5,227.5C 1390.98,226.511 1396.64,226.178 1402.5,226.5C 1403.48,223.038 1403.81,219.371 1403.5,215.5 Z"/></g>
<g><path style="opacity:1" fill="#eb2128" d="M 1231.5,216.5 C 1230.99,217.859 1229.99,218.859 1228.5,219.5C 1229.09,220.799 1230.09,221.632 1231.5,222C 1238.01,224.043 1244.67,224.876 1251.5,224.5C 1251.24,223.022 1251.57,221.689 1252.5,220.5C 1254.51,222.171 1256.84,222.838 1259.5,222.5C 1259.5,220.5 1259.5,218.5 1259.5,216.5C 1259.83,216.5 1260.17,216.5 1260.5,216.5C 1261.09,220.971 1260.42,224.971 1258.5,228.5C 1252.76,225.892 1246.76,225.059 1240.5,226C 1235.78,227.494 1234.28,230.661 1236,235.5C 1236.83,236.333 1237.67,237.167 1238.5,238C 1244.29,240.481 1249.95,243.147 1255.5,246C 1263.64,252.802 1265.81,261.302 1262,271.5C 1257.34,277.581 1251.17,280.581 1243.5,280.5C 1235.82,279.719 1228.15,278.719 1220.5,277.5C 1220.33,273.486 1220.5,269.486 1221,265.5C 1221.67,266.252 1222.5,266.586 1223.5,266.5C 1229.88,269.288 1236.55,270.121 1243.5,269C 1249.73,265.522 1250.06,261.522 1244.5,257C 1238.75,254.526 1233.08,251.86 1227.5,249C 1216.88,238.552 1216.88,228.218 1227.5,218C 1228.74,217.209 1230.08,216.709 1231.5,216.5 Z"/></g>
<g><path style="opacity:1" fill="#cf2623" d="M 392.5,230.5 C 395.91,230.384 397.244,232.05 396.5,235.5C 392.065,236.078 390.732,234.411 392.5,230.5 Z"/></g>
<g><path style="opacity:1" fill="#eb2228" d="M 796.5,216.5 C 796.818,221.032 796.485,225.366 795.5,229.5C 787.059,225.467 778.726,225.633 770.5,230C 767.152,232.501 764.818,235.668 763.5,239.5C 762.188,241.743 761.522,244.41 761.5,247.5C 761.667,250.167 761.833,252.833 762,255.5C 762.278,256.416 762.778,257.082 763.5,257.5C 767.385,264.864 773.552,268.531 782,268.5C 787.18,268.365 792.013,267.032 796.5,264.5C 797.661,268.795 797.828,273.129 797,277.5C 784.772,282.979 772.605,282.813 760.5,277C 755.199,273.702 751.365,269.202 749,263.5C 741.948,240.787 749.114,224.62 770.5,215C 779.319,213.999 787.985,214.499 796.5,216.5 Z"/></g>
<g><path style="opacity:1" fill="#eb2129" d="M 1164.5,217.5 C 1165.39,218.11 1166.39,218.443 1167.5,218.5C 1176.08,231.33 1184.42,244.33 1192.5,257.5C 1192.78,258.289 1193.28,258.956 1194,259.5C 1194.49,258.207 1194.66,256.873 1194.5,255.5C 1195.23,256.878 1195.9,258.378 1196.5,260C 1195.83,260.667 1195.17,261.333 1194.5,262C 1195.74,261.923 1196.74,262.089 1197.5,262.5C 1196.6,264.62 1195.26,264.954 1193.5,263.5C 1191.78,266.534 1190.11,269.534 1188.5,272.5C 1180.13,260.789 1172.13,248.789 1164.5,236.5C 1164.22,235.711 1163.72,235.044 1163,234.5C 1162.5,249.163 1162.33,263.83 1162.5,278.5C 1162.17,278.5 1161.83,278.5 1161.5,278.5C 1161.67,267.162 1161.5,255.828 1161,244.5C 1160.67,253.5 1160.33,262.5 1160,271.5C 1159.5,263.5 1159,255.5 1158.5,247.5C 1158.63,242.374 1159.13,237.374 1160,232.5C 1158.35,235.881 1155.85,238.215 1152.5,239.5C 1152.5,250.167 1152.5,260.833 1152.5,271.5C 1156.17,272.045 1155.84,272.378 1151.5,272.5C 1151.53,255.791 1151.53,239.291 1151.5,223C 1152.5,222.333 1153.5,222.333 1154.5,223C 1156.41,224.856 1157.24,227.023 1157,229.5C 1154.31,231.212 1153.97,233.212 1156,235.5C 1156.79,233.413 1157.96,231.579 1159.5,230C 1158.83,227.667 1158.17,225.333 1157.5,223C 1161.49,221.823 1163.16,223.323 1162.5,227.5C 1163.5,227.5 1164.5,227.5 1165.5,227.5C 1165.71,225.856 1165.38,224.356 1164.5,223C 1165.17,222.333 1165.83,221.667 1166.5,221C 1161.47,220.829 1156.47,220.329 1151.5,219.5C 1155.98,218.833 1160.32,218.166 1164.5,217.5 Z"/></g>
<g><path style="opacity:1" fill="#ec1d25" d="M 1534.5,216.5 C 1546.5,216.5 1558.5,216.5 1570.5,216.5C 1570.5,219.833 1570.5,223.167 1570.5,226.5C 1562.98,226.175 1555.65,226.508 1548.5,227.5C 1548.5,232.167 1548.5,236.833 1548.5,241.5C 1554.98,242.491 1561.65,242.824 1568.5,242.5C 1568.5,245.833 1568.5,249.167 1568.5,252.5C 1561.65,252.176 1554.98,252.509 1548.5,253.5C 1548.5,258.5 1548.5,263.5 1548.5,268.5C 1556.5,268.5 1564.5,268.5 1572.5,268.5C 1572.5,272.167 1572.5,275.833 1572.5,279.5C 1559.83,279.5 1547.17,279.5 1534.5,279.5C 1534.5,258.5 1534.5,237.5 1534.5,216.5 Z"/></g>
<g><path style="opacity:1" fill="#d31213" d="M 406.5,233.5 C 407.5,233.5 408.5,233.5 409.5,233.5C 409.205,235.735 409.539,237.735 410.5,239.5C 412.369,240.165 414.369,240.831 416.5,241.5C 414.369,242.169 412.369,242.835 410.5,243.5C 409.97,248.859 408.97,254.192 407.5,259.5C 406.512,254.36 406.179,249.026 406.5,243.5C 405.5,243.5 404.5,243.5 403.5,243.5C 403.5,242.167 403.5,240.833 403.5,239.5C 404.5,239.5 405.5,239.5 406.5,239.5C 406.5,237.5 406.5,235.5 406.5,233.5 Z"/></g>
<g><path style="opacity:1" fill="#de706b" d="M 406.5,233.5 C 407.568,232.566 408.901,232.232 410.5,232.5C 410.5,234.833 410.5,237.167 410.5,239.5C 409.539,237.735 409.205,235.735 409.5,233.5C 408.5,233.5 407.5,233.5 406.5,233.5 Z"/></g>
<g><path style="opacity:1" fill="#f8f0f0" d="M 840.5,249.5 C 841.038,251.117 841.371,252.784 841.5,254.5C 836.167,254.5 830.833,254.5 825.5,254.5C 827.496,247.511 829.496,240.511 831.5,233.5C 832.29,232.391 832.79,231.058 833,229.5C 835.815,236.128 838.315,242.794 840.5,249.5 Z"/></g>
<g><path style="opacity:1" fill="#d4272d" d="M 1287.5,227.5 C 1288.5,244.325 1288.83,261.325 1288.5,278.5C 1292.5,278.5 1296.5,278.5 1300.5,278.5C 1300.17,261.325 1300.5,244.325 1301.5,227.5C 1301.5,244.833 1301.5,262.167 1301.5,279.5C 1296.83,279.5 1292.17,279.5 1287.5,279.5C 1287.5,262.167 1287.5,244.833 1287.5,227.5 Z"/></g>
<g><path style="opacity:1" fill="#e47575" d="M 307.5,229.5 C 307.5,240.167 307.5,250.833 307.5,261.5C 308.791,261.737 309.791,261.404 310.5,260.5C 310.5,250.5 310.5,240.5 310.5,230.5C 310.5,230.167 310.5,229.833 310.5,229.5C 311.495,240.321 311.828,251.321 311.5,262.5C 309.833,262.5 308.167,262.5 306.5,262.5C 306.172,251.321 306.505,240.321 307.5,229.5 Z"/></g>
<g><path style="opacity:1" fill="#e80003" d="M 310.5,230.5 C 310.5,240.5 310.5,250.5 310.5,260.5C 309.172,255.881 308.506,250.881 308.5,245.5C 308.506,240.119 309.172,235.119 310.5,230.5 Z"/></g>
<g><path style="opacity:1" fill="#c41415" d="M 307.5,229.5 C 308.5,229.5 309.5,229.5 310.5,229.5C 310.5,229.833 310.5,230.167 310.5,230.5C 309.172,235.119 308.506,240.119 308.5,245.5C 308.506,250.881 309.172,255.881 310.5,260.5C 309.791,261.404 308.791,261.737 307.5,261.5C 307.5,250.833 307.5,240.167 307.5,229.5 Z"/></g>
<g><path style="opacity:1" fill="#d7332c" d="M 457.5,239.5 C 457.5,239.833 457.5,240.167 457.5,240.5C 455.897,240.312 454.563,240.812 453.5,242C 454.144,247.116 454.811,252.282 455.5,257.5C 456.167,252.683 456.834,248.017 457.5,243.5C 457.5,248.5 457.5,253.5 457.5,258.5C 459.833,258.5 462.167,258.5 464.5,258.5C 464.67,259.822 464.337,260.989 463.5,262C 460.331,262.978 457.497,262.478 455,260.5C 453.596,254.956 453.096,249.29 453.5,243.5C 452.5,243.5 451.5,243.5 450.5,243.5C 450.5,242.167 450.5,240.833 450.5,239.5C 451.5,239.5 452.5,239.5 453.5,239.5C 453.5,237.167 453.5,234.833 453.5,232.5C 454.833,232.5 456.167,232.5 457.5,232.5C 457.5,234.833 457.5,237.167 457.5,239.5 Z"/></g>
<g><path style="opacity:1" fill="#ef1c25" d="M 879.5,278.5 C 879.5,261.5 879.5,244.5 879.5,227.5C 874.025,226.511 868.358,226.178 862.5,226.5C 862.5,223.167 862.5,219.833 862.5,216.5C 878.833,216.5 895.167,216.5 911.5,216.5C 911.5,219.833 911.5,223.167 911.5,226.5C 905.167,226.5 898.833,226.5 892.5,226.5C 892.5,243.833 892.5,261.167 892.5,278.5C 888.167,278.5 883.833,278.5 879.5,278.5 Z"/></g>
<g><path style="opacity:1" fill="#dd4444" d="M 879.5,278.5 C 883.833,278.5 888.167,278.5 892.5,278.5C 892.5,261.167 892.5,243.833 892.5,226.5C 898.833,226.5 905.167,226.5 911.5,226.5C 911.5,223.167 911.5,219.833 911.5,216.5C 895.167,216.5 878.833,216.5 862.5,216.5C 862.5,219.833 862.5,223.167 862.5,226.5C 868.358,226.178 874.025,226.511 879.5,227.5C 873.5,227.5 867.5,227.5 861.5,227.5C 861.5,223.5 861.5,219.5 861.5,215.5C 878.5,215.5 895.5,215.5 912.5,215.5C 912.5,219.5 912.5,223.5 912.5,227.5C 906.5,227.5 900.5,227.5 894.5,227.5C 894.667,244.837 894.5,262.17 894,279.5C 891.589,280.139 889.089,280.473 886.5,280.5C 883.731,280.471 881.397,279.805 879.5,278.5 Z"/></g>
<g><path style="opacity:1" fill="#fababc" d="M 935.5,215.5 C 930.833,215.5 926.167,215.5 921.5,215.5C 921.5,236.833 921.5,258.167 921.5,279.5C 926.167,279.5 930.833,279.5 935.5,279.5C 930.695,280.487 925.695,280.821 920.5,280.5C 920.5,258.5 920.5,236.5 920.5,214.5C 925.695,214.179 930.695,214.513 935.5,215.5 Z"/></g>
<g><path style="opacity:1" fill="#d52b33" d="M 935.5,215.5 C 935.5,236.833 935.5,258.167 935.5,279.5C 930.833,279.5 926.167,279.5 921.5,279.5C 921.5,258.167 921.5,236.833 921.5,215.5C 926.167,215.5 930.833,215.5 935.5,215.5 Z"/></g>
<g><path style="opacity:1" fill="#f91621" d="M 926.5,278.5 C 926.333,260.164 926.5,241.83 927,223.5C 927.5,241.164 927.667,258.83 927.5,276.5C 929.167,276.5 930.833,276.5 932.5,276.5C 932.5,257.167 932.5,237.833 932.5,218.5C 929.833,218.5 927.167,218.5 924.5,218.5C 924.5,238.5 924.5,258.5 924.5,278.5C 922.512,258.194 921.845,237.527 922.5,216.5C 926.5,216.5 930.5,216.5 934.5,216.5C 934.5,237.167 934.5,257.833 934.5,278.5C 931.833,278.5 929.167,278.5 926.5,278.5 Z"/></g>
<g><path style="opacity:1" fill="#e91e26" d="M 926.5,278.5 C 925.833,278.5 925.167,278.5 924.5,278.5C 924.5,258.5 924.5,238.5 924.5,218.5C 927.167,218.5 929.833,218.5 932.5,218.5C 932.5,237.833 932.5,257.167 932.5,276.5C 930.833,276.5 929.167,276.5 927.5,276.5C 927.667,258.83 927.5,241.164 927,223.5C 926.5,241.83 926.333,260.164 926.5,278.5 Z"/></g>
<g><path style="opacity:1" fill="#dd737a" d="M 1286.5,227.5 C 1286.83,227.5 1287.17,227.5 1287.5,227.5C 1287.5,244.833 1287.5,262.167 1287.5,279.5C 1292.17,279.5 1296.83,279.5 1301.5,279.5C 1296.69,280.487 1291.69,280.821 1286.5,280.5C 1286.5,262.833 1286.5,245.167 1286.5,227.5 Z"/></g>
<g><path style="opacity:1" fill="#cf5659" d="M 1370.5,227.5 C 1371.5,244.325 1371.83,261.325 1371.5,278.5C 1375.97,279.486 1380.64,279.819 1385.5,279.5C 1380.69,280.487 1375.69,280.821 1370.5,280.5C 1370.5,262.833 1370.5,245.167 1370.5,227.5 Z"/></g>
<g><path style="opacity:1" fill="#cf2830" d="M 1385.5,227.5 C 1385.5,244.833 1385.5,262.167 1385.5,279.5C 1380.64,279.819 1375.97,279.486 1371.5,278.5C 1375.83,278.5 1380.17,278.5 1384.5,278.5C 1384.17,261.325 1384.5,244.325 1385.5,227.5 Z"/></g>
<g><path style="opacity:1" fill="#f89297" d="M 1491.5,227.5 C 1491.83,227.5 1492.17,227.5 1492.5,227.5C 1492.5,244.833 1492.5,262.167 1492.5,279.5C 1497.17,279.5 1501.83,279.5 1506.5,279.5C 1506.5,262.167 1506.5,244.833 1506.5,227.5C 1506.83,227.5 1507.17,227.5 1507.5,227.5C 1507.5,245.167 1507.5,262.833 1507.5,280.5C 1502.17,280.5 1496.83,280.5 1491.5,280.5C 1491.5,262.833 1491.5,245.167 1491.5,227.5 Z"/></g>
<g><path style="opacity:1" fill="#d8242f" d="M 1492.5,227.5 C 1493.5,244.325 1493.83,261.325 1493.5,278.5C 1497.5,278.5 1501.5,278.5 1505.5,278.5C 1505.17,261.325 1505.5,244.325 1506.5,227.5C 1506.5,244.833 1506.5,262.167 1506.5,279.5C 1501.83,279.5 1497.17,279.5 1492.5,279.5C 1492.5,262.167 1492.5,244.833 1492.5,227.5 Z"/></g>
<g><path style="opacity:1" fill="#ec1d25" d="M 1524.5,225.5 C 1518.5,226.167 1512.5,226.833 1506.5,227.5C 1505.5,244.325 1505.17,261.325 1505.5,278.5C 1501.5,278.5 1497.5,278.5 1493.5,278.5C 1493.83,261.325 1493.5,244.325 1492.5,227.5C 1492.17,227.5 1491.83,227.5 1491.5,227.5C 1490.79,226.596 1489.79,226.263 1488.5,226.5C 1488.61,225.883 1488.94,225.383 1489.5,225C 1485.18,224.501 1480.85,224.334 1476.5,224.5C 1476.5,222.5 1476.5,220.5 1476.5,218.5C 1477.5,218.5 1478.5,218.5 1479.5,218.5C 1479.5,219.833 1479.5,221.167 1479.5,222.5C 1493.18,222.833 1506.85,222.499 1520.5,221.5C 1509.5,220.833 1498.5,220.167 1487.5,219.5C 1499.15,218.501 1510.81,218.168 1522.5,218.5C 1521.99,221.388 1522.66,223.721 1524.5,225.5 Z"/></g>
<g><path style="opacity:1" fill="#ec7e82" d="M 1571.5,215.5 C 1558.99,215.171 1546.66,215.505 1534.5,216.5C 1534.5,237.5 1534.5,258.5 1534.5,279.5C 1547.17,279.5 1559.83,279.5 1572.5,279.5C 1559.68,280.495 1546.68,280.829 1533.5,280.5C 1533.5,258.5 1533.5,236.5 1533.5,214.5C 1546.34,214.171 1559.01,214.505 1571.5,215.5 Z"/></g>
<g><path style="opacity:1" fill="#d83730" d="M 384.5,239.5 C 384.5,240.833 384.5,242.167 384.5,243.5C 382.167,243.5 379.833,243.5 377.5,243.5C 378.609,242.71 379.942,242.21 381.5,242C 378.144,240.818 374.81,240.651 371.5,241.5C 371.863,242.183 372.196,242.85 372.5,243.5C 370.824,242.817 370.157,241.483 370.5,239.5C 371.5,239.5 372.5,239.5 373.5,239.5C 373.5,237.167 373.5,234.833 373.5,232.5C 374.833,232.5 376.167,232.5 377.5,232.5C 377.5,234.833 377.5,237.167 377.5,239.5C 379.833,239.5 382.167,239.5 384.5,239.5 Z"/></g>
<g><path style="opacity:1" fill="#ee7776" d="M 457.5,240.5 C 457.5,240.167 457.5,239.833 457.5,239.5C 460.167,239.5 462.833,239.5 465.5,239.5C 465.5,240.833 465.5,242.167 465.5,243.5C 462.833,243.5 460.167,243.5 457.5,243.5C 459.698,242.835 462.031,242.168 464.5,241.5C 462.257,240.526 459.924,240.192 457.5,240.5 Z"/></g>
<g><path style="opacity:1" fill="#db3c42" d="M 1548.5,241.5 C 1555.5,241.5 1562.5,241.5 1569.5,241.5C 1569.5,245.5 1569.5,249.5 1569.5,253.5C 1562.83,253.5 1556.17,253.5 1549.5,253.5C 1549.17,253.5 1548.83,253.5 1548.5,253.5C 1554.98,252.509 1561.65,252.176 1568.5,252.5C 1568.5,249.167 1568.5,245.833 1568.5,242.5C 1561.65,242.824 1554.98,242.491 1548.5,241.5 Z"/></g>
<g><path style="opacity:1" fill="#d23632" d="M 321.5,239.5 C 322.833,239.5 324.167,239.5 325.5,239.5C 325.351,240.552 325.517,241.552 326,242.5C 330.7,238.601 335.366,238.601 340,242.5C 341.42,249.05 341.92,255.716 341.5,262.5C 340.167,262.5 338.833,262.5 337.5,262.5C 337.666,256.824 337.499,251.157 337,245.5C 333.057,242.634 329.39,242.968 326,246.5C 325.501,251.823 325.334,257.156 325.5,262.5C 324.167,262.5 322.833,262.5 321.5,262.5C 321.5,254.833 321.5,247.167 321.5,239.5 Z"/></g>
<g><path style="opacity:1" fill="#e05559" d="M 410.5,239.5 C 412.833,239.5 415.167,239.5 417.5,239.5C 417.5,240.833 417.5,242.167 417.5,243.5C 415.167,243.5 412.833,243.5 410.5,243.5C 412.369,242.835 414.369,242.169 416.5,241.5C 414.369,240.831 412.369,240.165 410.5,239.5 Z"/></g>
<g><path style="opacity:1" fill="#d64d52" d="M 763.5,239.5 C 762.274,245.479 762.274,251.479 763.5,257.5C 762.778,257.082 762.278,256.416 762,255.5C 761.833,252.833 761.667,250.167 761.5,247.5C 761.522,244.41 762.188,241.743 763.5,239.5 Z"/></g>
<g><path style="opacity:1" fill="#dd423e" d="M 948.5,237.5 C 948.5,244.5 948.5,251.5 948.5,258.5C 946.981,255.474 946.315,252.141 946.5,248.5C 946.363,244.553 947.03,240.886 948.5,237.5 Z"/></g>
<g><path style="opacity:1" fill="#d6261e" d="M 476.5,239.5 C 486.411,238.416 491.078,242.749 490.5,252.5C 485.167,252.5 479.833,252.5 474.5,252.5C 474.379,256.107 476.045,258.273 479.5,259C 483.055,259.056 486.389,258.222 489.5,256.5C 489.548,259.292 488.215,261.125 485.5,262C 474.283,263.786 469.116,258.953 470,247.5C 471.305,244.039 473.471,241.372 476.5,239.5 Z"/></g>
<g><path style="opacity:1" fill="#faebeb" d="M 486.5,246.5 C 484.952,247.794 482.952,248.461 480.5,248.5C 478.304,248.495 476.304,248.162 474.5,247.5C 475.114,244.234 477.114,242.901 480.5,243.5C 483.308,243.078 485.308,244.078 486.5,246.5 Z"/></g>
<g><path style="opacity:1" fill="#c9494b" d="M 735.5,257.5 C 735.5,243.833 735.5,230.167 735.5,216.5C 731.167,216.5 726.833,216.5 722.5,216.5C 722.829,230.677 722.496,244.677 721.5,258.5C 721.5,243.833 721.5,229.167 721.5,214.5C 726.5,214.5 731.5,214.5 736.5,214.5C 736.829,229.01 736.496,243.343 735.5,257.5 Z"/></g>
<g><path style="opacity:1" fill="#ee7276" d="M 1036.5,237.5 C 1035.5,251.657 1035.17,265.99 1035.5,280.5C 1030.64,280.819 1025.97,280.486 1021.5,279.5C 1025.83,279.5 1030.17,279.5 1034.5,279.5C 1034.33,264.496 1034.5,249.496 1035,234.5C 1035.51,235.527 1036.01,236.527 1036.5,237.5 Z"/></g>
<g><path style="opacity:1" fill="#e5262b" d="M 1207.5,215.5 C 1207.5,237.167 1207.5,258.833 1207.5,280.5C 1202.46,280.827 1197.46,280.494 1192.5,279.5C 1191.14,277.15 1189.81,274.816 1188.5,272.5C 1189.73,272.721 1190.73,273.388 1191.5,274.5C 1192.45,273.674 1193.45,273.508 1194.5,274C 1193.62,275.356 1193.29,276.856 1193.5,278.5C 1197.83,278.5 1202.17,278.5 1206.5,278.5C 1206.5,257.833 1206.5,237.167 1206.5,216.5C 1202.77,216.177 1199.11,216.511 1195.5,217.5C 1198.43,218.484 1201.43,218.817 1204.5,218.5C 1204.5,237.833 1204.5,257.167 1204.5,276.5C 1203.32,276.719 1202.32,276.386 1201.5,275.5C 1202.82,257.535 1202.82,239.535 1201.5,221.5C 1200.57,222.641 1199.74,222.641 1199,221.5C 1198.33,231.167 1198.33,240.833 1199,250.5C 1199.33,241.5 1199.67,232.5 1200,223.5C 1200.67,239.5 1200.67,255.5 1200,271.5C 1199.83,266.136 1199.33,260.802 1198.5,255.5C 1197.78,252.942 1196.45,252.275 1194.5,253.5C 1194.5,240.833 1194.5,228.167 1194.5,215.5C 1198.83,215.5 1203.17,215.5 1207.5,215.5 Z"/></g>
<g><path style="opacity:1" fill="#e80104" d="M 322.5,240.5 C 324.085,241.474 325.085,242.974 325.5,245C 324.854,250.448 324.188,255.948 323.5,261.5C 322.503,254.532 322.17,247.532 322.5,240.5 Z"/></g>
<g><path style="opacity:1" fill="#e60203" d="M 457.5,240.5 C 459.924,240.192 462.257,240.526 464.5,241.5C 462.031,242.168 459.698,242.835 457.5,243.5C 456.834,248.017 456.167,252.683 455.5,257.5C 454.811,252.282 454.144,247.116 453.5,242C 454.563,240.812 455.897,240.312 457.5,240.5 Z"/></g>
<g><path style="opacity:1" fill="#f29ea2" d="M 486.5,246.5 C 487.404,247.209 487.737,248.209 487.5,249.5C 482.786,249.827 478.12,249.493 473.5,248.5C 473.624,247.893 473.957,247.56 474.5,247.5C 476.304,248.162 478.304,248.495 480.5,248.5C 482.952,248.461 484.952,247.794 486.5,246.5 Z"/></g>
<g><path style="opacity:1" fill="#db5256" d="M 207.5,248.5 C 204.992,250.237 201.992,251.07 198.5,251C 193.316,251.816 188.316,251.65 183.5,250.5C 191.572,250.597 199.572,249.93 207.5,248.5 Z"/></g>
<g><path style="opacity:1" fill="#e90104" d="M 338.5,245.5 C 339.117,245.611 339.617,245.944 340,246.5C 340.829,251.533 340.662,256.533 339.5,261.5C 338.505,256.208 338.172,250.875 338.5,245.5 Z"/></g>
<g><path style="opacity:1" fill="#f29799" d="M 392.5,239.5 C 392.5,246.833 392.5,254.167 392.5,261.5C 393.5,261.5 394.5,261.5 395.5,261.5C 395.5,254.167 395.5,246.833 395.5,239.5C 396.492,246.982 396.825,254.648 396.5,262.5C 394.833,262.5 393.167,262.5 391.5,262.5C 391.5,259.167 391.5,255.833 391.5,252.5C 391.5,250.833 391.5,249.167 391.5,247.5C 391.194,244.615 391.527,241.948 392.5,239.5 Z"/></g>
<g><path style="opacity:1" fill="#e90204" d="M 377.5,243.5 C 376.834,248.017 376.167,252.683 375.5,257.5C 374.833,252.683 374.166,248.017 373.5,243.5C 373.167,243.5 372.833,243.5 372.5,243.5C 372.196,242.85 371.863,242.183 371.5,241.5C 374.81,240.651 378.144,240.818 381.5,242C 379.942,242.21 378.609,242.71 377.5,243.5 Z"/></g>
<g><path style="opacity:1" fill="#f01b23" d="M 1164.5,217.5 C 1160.32,218.166 1155.98,218.833 1151.5,219.5C 1156.47,220.329 1161.47,220.829 1166.5,221C 1165.83,221.667 1165.17,222.333 1164.5,223C 1165.38,224.356 1165.71,225.856 1165.5,227.5C 1164.5,227.5 1163.5,227.5 1162.5,227.5C 1163.16,223.323 1161.49,221.823 1157.5,223C 1158.17,225.333 1158.83,227.667 1159.5,230C 1157.96,231.579 1156.79,233.413 1156,235.5C 1153.97,233.212 1154.31,231.212 1157,229.5C 1157.24,227.023 1156.41,224.856 1154.5,223C 1153.5,222.333 1152.5,222.333 1151.5,223C 1151.53,239.291 1151.53,255.791 1151.5,272.5C 1155.84,272.378 1156.17,272.045 1152.5,271.5C 1152.5,260.833 1152.5,250.167 1152.5,239.5C 1155.85,238.215 1158.35,235.881 1160,232.5C 1159.13,237.374 1158.63,242.374 1158.5,247.5C 1159,255.5 1159.5,263.5 1160,271.5C 1160.33,262.5 1160.67,253.5 1161,244.5C 1161.5,255.828 1161.67,267.162 1161.5,278.5C 1157.83,278.5 1154.17,278.5 1150.5,278.5C 1150.5,257.833 1150.5,237.167 1150.5,216.5C 1155.36,216.181 1160.03,216.514 1164.5,217.5 Z"/></g>
<g><path style="opacity:1" fill="#ef7277" d="M 1164.5,236.5 C 1163.5,250.99 1163.17,265.657 1163.5,280.5C 1158.64,280.819 1153.97,280.486 1149.5,279.5C 1154.03,279.818 1158.37,279.485 1162.5,278.5C 1162.33,263.83 1162.5,249.163 1163,234.5C 1163.72,235.044 1164.22,235.711 1164.5,236.5 Z"/></g>
<g><path style="opacity:1" fill="#d2453d" d="M 410.5,243.5 C 410.5,248.5 410.5,253.5 410.5,258.5C 412.735,258.205 414.735,258.539 416.5,259.5C 413.881,259.768 411.381,259.435 409,258.5C 408.383,259.449 408.549,260.282 409.5,261C 411.473,261.495 413.473,261.662 415.5,261.5C 415.5,261.833 415.5,262.167 415.5,262.5C 413.143,262.663 410.81,262.497 408.5,262C 407.748,261.329 407.414,260.496 407.5,259.5C 408.97,254.192 409.97,248.859 410.5,243.5 Z"/></g>
<g><path style="opacity:1" fill="#d11312" d="M 392.5,239.5 C 393.5,239.5 394.5,239.5 395.5,239.5C 395.5,246.833 395.5,254.167 395.5,261.5C 394.5,261.5 393.5,261.5 392.5,261.5C 392.5,254.167 392.5,246.833 392.5,239.5 Z"/></g>
<g><path style="opacity:1" fill="#d7211a" d="M 353.5,239.5 C 356.607,239.351 359.607,239.851 362.5,241C 363.337,242.011 363.67,243.178 363.5,244.5C 360.214,243.793 356.881,243.46 353.5,243.5C 353.343,244.873 353.51,246.207 354,247.5C 357.149,248.996 360.316,250.496 363.5,252C 366.67,256.454 365.67,259.787 360.5,262C 356.683,263.023 353.183,262.523 350,260.5C 349.251,259.365 349.417,258.365 350.5,257.5C 354.639,260.499 358.306,260.166 361.5,256.5C 357.651,253.981 353.817,251.314 350,248.5C 348.665,244.392 349.832,241.392 353.5,239.5 Z"/></g>
<g><path style="opacity:1" fill="#d02d27" d="M 373.5,243.5 C 374.166,248.017 374.833,252.683 375.5,257.5C 376.167,252.683 376.834,248.017 377.5,243.5C 377.5,248.5 377.5,253.5 377.5,258.5C 379.833,258.5 382.167,258.5 384.5,258.5C 384.67,259.822 384.337,260.989 383.5,262C 381.19,262.497 378.857,262.663 376.5,262.5C 375.496,261.317 374.662,259.984 374,258.5C 373.501,253.511 373.334,248.511 373.5,243.5 Z"/></g>
<g><path style="opacity:1" fill="#de0f0e" d="M 416.5,259.5 C 417.757,260.623 417.424,261.289 415.5,261.5C 413.473,261.662 411.473,261.495 409.5,261C 408.549,260.282 408.383,259.449 409,258.5C 411.381,259.435 413.881,259.768 416.5,259.5 Z"/></g>
<g><path style="opacity:1" fill="#d82e24" d="M 424.5,239.5 C 425.833,239.5 427.167,239.5 428.5,239.5C 428.334,245.176 428.501,250.843 429,256.5C 432.601,260.615 435.934,260.281 439,255.5C 439.499,250.177 439.666,244.844 439.5,239.5C 440.833,239.5 442.167,239.5 443.5,239.5C 443.5,247.167 443.5,254.833 443.5,262.5C 442.5,262.5 441.5,262.5 440.5,262.5C 440.026,258.843 438.693,258.676 436.5,262C 432.409,263.227 428.909,262.394 426,259.5C 424.58,252.95 424.08,246.284 424.5,239.5 Z"/></g>
<g><path style="opacity:1" fill="#f21a23" d="M 1188.5,272.5 C 1190.11,269.534 1191.78,266.534 1193.5,263.5C 1195.26,264.954 1196.6,264.62 1197.5,262.5C 1196.74,262.089 1195.74,261.923 1194.5,262C 1195.17,261.333 1195.83,260.667 1196.5,260C 1195.9,258.378 1195.23,256.878 1194.5,255.5C 1194.5,254.833 1194.5,254.167 1194.5,253.5C 1196.45,252.275 1197.78,252.942 1198.5,255.5C 1199.33,260.802 1199.83,266.136 1200,271.5C 1200.67,255.5 1200.67,239.5 1200,223.5C 1199.67,232.5 1199.33,241.5 1199,250.5C 1198.33,240.833 1198.33,231.167 1199,221.5C 1199.74,222.641 1200.57,222.641 1201.5,221.5C 1202.82,239.535 1202.82,257.535 1201.5,275.5C 1202.32,276.386 1203.32,276.719 1204.5,276.5C 1204.5,257.167 1204.5,237.833 1204.5,218.5C 1201.43,218.817 1198.43,218.484 1195.5,217.5C 1199.11,216.511 1202.77,216.177 1206.5,216.5C 1206.5,237.167 1206.5,257.833 1206.5,278.5C 1202.17,278.5 1197.83,278.5 1193.5,278.5C 1193.29,276.856 1193.62,275.356 1194.5,274C 1193.45,273.508 1192.45,273.674 1191.5,274.5C 1190.73,273.388 1189.73,272.721 1188.5,272.5 Z"/></g>
<g><path style="opacity:1" fill="#ed1f26" d="M 1426.5,258.5 C 1427.61,261.971 1429.61,264.971 1432.5,267.5C 1436.8,270.09 1441.14,270.09 1445.5,267.5C 1448.07,265.293 1449.73,262.627 1450.5,259.5C 1451.22,259.082 1451.72,258.416 1452,257.5C 1452.5,243.837 1452.67,230.171 1452.5,216.5C 1456.5,216.5 1460.5,216.5 1464.5,216.5C 1464.5,230.5 1464.5,244.5 1464.5,258.5C 1464.3,261.518 1463.96,264.518 1463.5,267.5C 1459.53,275.304 1453.19,279.804 1444.5,281C 1433.12,283.283 1423.62,280.117 1416,271.5C 1414.86,268.904 1414.03,266.237 1413.5,263.5C 1412.6,247.521 1412.26,231.521 1412.5,215.5C 1416.83,215.5 1421.17,215.5 1425.5,215.5C 1425.17,230.01 1425.5,244.343 1426.5,258.5 Z"/></g>
<g><path style="opacity:1" fill="#ed1e26" d="M 1063.5,256.5 C 1063.75,257.922 1064.58,258.922 1066,259.5C 1066.46,258.906 1066.63,258.239 1066.5,257.5C 1068.48,244.876 1069.15,231.876 1068.5,218.5C 1071.17,218.5 1073.83,218.5 1076.5,218.5C 1076.5,238.5 1076.5,258.5 1076.5,278.5C 1072.82,278.665 1069.15,278.499 1065.5,278C 1064.62,276.644 1064.29,275.144 1064.5,273.5C 1062.68,273.169 1061.01,272.502 1059.5,271.5C 1051.85,260.182 1044.19,248.848 1036.5,237.5C 1036.01,236.527 1035.51,235.527 1035,234.5C 1034.5,249.496 1034.33,264.496 1034.5,279.5C 1030.17,279.5 1025.83,279.5 1021.5,279.5C 1021.5,258.167 1021.5,236.833 1021.5,215.5C 1026.84,215.334 1032.18,215.501 1037.5,216C 1046.36,229.363 1055.03,242.863 1063.5,256.5 Z"/></g>
<g><path style="opacity:1" fill="#fea6ac" d="M 1548.5,253.5 C 1548.83,253.5 1549.17,253.5 1549.5,253.5C 1549.5,258.167 1549.5,262.833 1549.5,267.5C 1557.5,267.5 1565.5,267.5 1573.5,267.5C 1573.82,271.702 1573.48,275.702 1572.5,279.5C 1572.5,275.833 1572.5,272.167 1572.5,268.5C 1564.5,268.5 1556.5,268.5 1548.5,268.5C 1548.5,263.5 1548.5,258.5 1548.5,253.5 Z"/></g>
<g><path style="opacity:1" fill="#d44249" d="M 1432.5,267.5 C 1436.82,268.726 1441.16,268.726 1445.5,267.5C 1441.14,270.09 1436.8,270.09 1432.5,267.5 Z"/></g>
<g><path style="opacity:1" fill="#eb2027" d="M 645.5,216.5 C 646.167,216.5 646.833,216.5 647.5,216.5C 664.965,218.472 673.298,228.306 672.5,246C 673.204,258.259 668.537,267.925 658.5,275C 655.368,276.782 652.035,277.948 648.5,278.5C 638.5,278.5 628.5,278.5 618.5,278.5C 618.5,258.5 618.5,238.5 618.5,218.5C 627.895,219.138 636.895,218.471 645.5,216.5 Z"/></g>
<g><path style="opacity:1" fill="#e8878a" d="M 630.5,227.5 C 630.5,240.833 630.5,254.167 630.5,267.5C 633.5,267.5 636.5,267.5 639.5,267.5C 636.375,268.479 633.042,268.813 629.5,268.5C 629.171,254.656 629.504,240.99 630.5,227.5 Z"/></g>
<g><path style="opacity:1" fill="#f7f5f4" d="M 630.5,227.5 C 649.668,225.172 658.501,233.505 657,252.5C 654.959,262.047 649.126,267.047 639.5,267.5C 636.5,267.5 633.5,267.5 630.5,267.5C 630.5,254.167 630.5,240.833 630.5,227.5 Z"/></g>
<g><path style="opacity:1" fill="#ec9292" d="M 238.5,271.5 C 237.514,273.408 235.848,274.408 233.5,274.5C 234.659,272.75 236.326,271.75 238.5,271.5 Z"/></g>
<g><path style="opacity:1" fill="#ec2128" d="M 983.5,280.5 C 977.311,280.616 971.311,279.949 965.5,278.5C 956.211,274.88 950.544,268.213 948.5,258.5C 948.5,251.5 948.5,244.5 948.5,237.5C 951.466,226.363 958.466,218.863 969.5,215C 990.656,210.867 1004.16,219.033 1010,239.5C 1012.81,257.039 1006.64,270.206 991.5,279C 988.883,279.822 986.216,280.322 983.5,280.5 Z"/></g>
<g><path style="opacity:1" fill="#d75052" d="M 994.5,244.5 C 995.161,246.134 995.494,247.967 995.5,250C 995.64,253.15 994.973,255.983 993.5,258.5C 994.229,253.87 994.563,249.203 994.5,244.5 Z"/></g>
<g><path style="opacity:1" fill="#f7f4f4" d="M 994.5,244.5 C 994.563,249.203 994.229,253.87 993.5,258.5C 986.534,269.664 977.701,271.331 967,263.5C 961.768,254.235 961.101,244.568 965,234.5C 973.05,224.709 981.717,224.042 991,232.5C 993.285,236.187 994.452,240.187 994.5,244.5 Z"/></g>
<g><path style="opacity:1" fill="#dc4143" d="M 1223.5,266.5 C 1222.5,266.586 1221.67,266.252 1221,265.5C 1220.5,269.486 1220.33,273.486 1220.5,277.5C 1228.15,278.719 1235.82,279.719 1243.5,280.5C 1235.47,281.831 1227.47,281.164 1219.5,278.5C 1219.17,273.456 1219.51,268.456 1220.5,263.5C 1221.85,264.188 1222.85,265.188 1223.5,266.5 Z"/></g>
<g><path style="opacity:1" fill="#ed888e" d="M 580.5,267.5 C 588.833,267.5 597.167,267.5 605.5,267.5C 605.5,271.833 605.5,276.167 605.5,280.5C 591.99,280.829 578.656,280.496 565.5,279.5C 565.833,279.5 566.167,279.5 566.5,279.5C 579.167,279.5 591.833,279.5 604.5,279.5C 604.5,275.833 604.5,272.167 604.5,268.5C 596.316,268.826 588.316,268.492 580.5,267.5 Z"/></g>
<g><path style="opacity:1" fill="#e27c87" d="M 802.5,278.5 C 807.305,279.487 812.305,279.821 817.5,279.5C 812.32,280.815 806.986,280.815 801.5,279.5C 801.624,278.893 801.957,278.56 802.5,278.5 Z"/></g>
<g><path style="opacity:1" fill="#e07a84" d="M 864.5,277.5 C 865.404,278.209 865.737,279.209 865.5,280.5C 859.974,280.821 854.64,280.488 849.5,279.5C 854.944,280.108 859.944,279.442 864.5,277.5 Z"/></g>
<g><path style="opacity:1" fill="#e14e4d" d="M 965.5,278.5 C 971.311,279.949 977.311,280.616 983.5,280.5C 980.024,281.643 976.358,281.81 972.5,281C 969.809,280.844 967.476,280.011 965.5,278.5 Z"/></g>
<g><path style="opacity:1" fill="#ed2027" d="M 291.5,283.5 C 291.722,285.607 292.722,287.274 294.5,288.5C 292.252,289.324 292.086,290.324 294,291.5C 295.049,290.483 296.216,290.316 297.5,291C 299.457,292.746 300.457,294.912 300.5,297.5C 292.897,305.934 284.231,313.101 274.5,319C 242.585,338.173 207.919,346.007 170.5,342.5C 170.5,330.833 170.5,319.167 170.5,307.5C 172.167,307.5 173.833,307.5 175.5,307.5C 215.687,311.18 250.187,299.18 279,271.5C 283.657,274.99 287.823,278.99 291.5,283.5 Z"/></g>
<g><path style="opacity:1" fill="#e34343" d="M 291.5,283.5 C 296.362,287.178 300.195,291.512 303,296.5C 302.329,297.252 301.496,297.586 300.5,297.5C 300.457,294.912 299.457,292.746 297.5,291C 296.216,290.316 295.049,290.483 294,291.5C 292.086,290.324 292.252,289.324 294.5,288.5C 292.722,287.274 291.722,285.607 291.5,283.5 Z"/></g>
<g><path style="opacity:1" fill="#d35256" d="M 147.5,300.5 C 148.495,312.655 148.829,324.989 148.5,337.5C 146.585,337.784 144.919,337.451 143.5,336.5C 144.833,336.5 146.167,336.5 147.5,336.5C 147.5,324.5 147.5,312.5 147.5,300.5 Z"/></g>
<g><path style="opacity:1" fill="#fddbd9" d="M 146.5,299.5 C 147.873,299.343 149.207,299.51 150.5,300C 149.511,312.754 149.178,325.587 149.5,338.5C 146.15,338.665 142.817,338.498 139.5,338C 138.748,337.329 138.414,336.496 138.5,335.5C 140.042,336.301 141.708,336.634 143.5,336.5C 144.919,337.451 146.585,337.784 148.5,337.5C 148.829,324.989 148.495,312.655 147.5,300.5C 146.833,300.5 146.5,300.167 146.5,299.5 Z"/></g>
<g><path style="opacity:1" fill="#f57e86" d="M 175.5,307.5 C 173.833,307.5 172.167,307.5 170.5,307.5C 170.5,319.167 170.5,330.833 170.5,342.5C 169.505,330.678 169.172,318.678 169.5,306.5C 171.735,306.205 173.735,306.539 175.5,307.5 Z"/></g>
</svg>
